<svg width="207" height="36" viewBox="0 0 207 36" fill="none" xmlns="http://www.w3.org/2000/svg">
<path d="M53.5664 30.4532C53.5664 31.0157 53.4474 31.5001 53.2093 31.9063C52.9712 32.3125 52.6487 32.625 52.242 32.8438C51.8352 33.0521 51.4086 33.2032 50.9622 33.2969C50.5257 33.4011 50.0544 33.4532 49.5485 33.4532C48.6358 33.4532 47.8768 33.1615 47.2717 32.5782C46.6764 31.9844 46.3788 31.2032 46.3788 30.2345H47.7479C47.7479 30.7865 47.9165 31.2553 48.2538 31.6407C48.5911 32.0157 49.0177 32.2032 49.5336 32.2032C49.8808 32.2032 50.1834 32.1876 50.4414 32.1563C50.6993 32.1251 50.982 32.0626 51.2896 31.9688C51.5971 31.8646 51.8352 31.698 52.0039 31.4688C52.1725 31.2292 52.2569 30.9272 52.2569 30.5626C52.2569 30.1355 52.1477 29.7918 51.9295 29.5313C51.7211 29.2605 51.4483 29.0678 51.111 28.9532C50.7737 28.8386 50.4017 28.7501 49.9949 28.6876C49.5882 28.6147 49.1814 28.5314 48.7747 28.4376C48.3679 28.3334 47.9959 28.198 47.6586 28.0314C47.3213 27.8543 47.0435 27.573 46.8252 27.1876C46.6169 26.8022 46.5127 26.3178 46.5127 25.7345C46.5127 24.9116 46.85 24.2502 47.5246 23.7502C48.2092 23.2502 48.9582 23.0002 49.7717 23.0002C50.2181 23.0002 50.6348 23.0471 51.0217 23.1408C51.4186 23.2345 51.7807 23.3856 52.108 23.5939C52.4454 23.7918 52.7083 24.0731 52.8968 24.4377C53.0952 24.8022 53.1944 25.2293 53.1944 25.7189H51.8551C51.8551 25.396 51.7955 25.1304 51.6765 24.922C51.5574 24.7033 51.3838 24.547 51.1557 24.4533C50.9374 24.3595 50.7191 24.297 50.5009 24.2658C50.2826 24.2345 50.0197 24.2189 49.7122 24.2189C48.4721 24.2189 47.852 24.7397 47.852 25.7814C47.852 26.1876 47.9909 26.5105 48.2687 26.7501C48.5564 26.9897 48.9086 27.1512 49.3253 27.2345C49.7519 27.3178 50.2132 27.4272 50.7092 27.5626C51.2053 27.6876 51.6616 27.8334 52.0783 28.0001C52.5049 28.1564 52.8571 28.4428 53.1349 28.8595C53.4226 29.2761 53.5664 29.8074 53.5664 30.4532Z" fill="#363843"/>
<path d="M65.3225 33.2344H64.1172V28.7345C64.1172 28.1928 63.9932 27.7657 63.7451 27.4532C63.4971 27.1407 63.1251 26.9845 62.629 26.9845C62.1727 26.9845 61.7759 27.1772 61.4386 27.5626C61.1012 27.9376 60.9326 28.3282 60.9326 28.7345V33.2344H59.7272V28.7345C59.7272 28.2657 59.5883 27.8595 59.3105 27.5157C59.0427 27.1616 58.6955 26.9845 58.2689 26.9845C57.7827 26.9845 57.3611 27.1772 57.004 27.5626C56.6567 27.948 56.4831 28.3386 56.4831 28.7345V33.2344H55.2777V26.2814H56.4831V27.2345C57.0188 26.4845 57.6736 26.1095 58.4474 26.1095C59.0526 26.1095 59.5139 26.2033 59.8314 26.3908C60.1588 26.5783 60.4514 26.8907 60.7094 27.3282C61.2749 26.5158 61.9892 26.1095 62.8523 26.1095C64.4991 26.1095 65.3225 26.9845 65.3225 28.7345V33.2344Z" fill="#363843"/>
<path d="M71.3792 29.8126C71.0816 29.7813 70.8583 29.7657 70.7095 29.7657C70.4516 29.7657 70.1887 29.7918 69.9208 29.8438C69.653 29.8855 69.3752 29.9584 69.0875 30.0626C68.8097 30.1563 68.5766 30.3074 68.3881 30.5157C68.2095 30.724 68.1202 30.9688 68.1202 31.2501C68.1202 31.6251 68.2442 31.9271 68.4922 32.1563C68.7502 32.375 69.0627 32.4844 69.4297 32.4844C70.1837 32.4844 70.6946 32.25 70.9625 31.7813C71.2403 31.3126 71.3792 30.6563 71.3792 29.8126ZM72.778 33.2344H71.6024C71.533 32.9115 71.4784 32.5782 71.4387 32.2344C71.1212 32.6615 70.8137 32.9688 70.5161 33.1563C70.2184 33.3334 69.8563 33.4219 69.4297 33.4219C68.7948 33.4219 68.2095 33.2448 67.6738 32.8907C67.148 32.5261 66.8851 32.0313 66.8851 31.4063C66.8851 30.9063 66.9942 30.4792 67.2125 30.1251C67.4307 29.7709 67.7283 29.5105 68.1053 29.3438C68.4823 29.1668 68.8643 29.0418 69.2512 28.9688C69.6381 28.8959 70.0498 28.8595 70.4863 28.8595H71.3941C71.4139 28.672 71.4238 28.5314 71.4238 28.4376C71.4238 27.5105 70.9327 27.047 69.9506 27.047C69.5538 27.047 69.2065 27.1407 68.9089 27.3282C68.6212 27.5053 68.4774 27.7814 68.4774 28.1564H67.2422C67.2422 26.7918 68.1301 26.1095 69.906 26.1095C71.3445 26.1095 72.1976 26.5001 72.4655 27.2814C72.5548 27.521 72.5994 28.0939 72.5994 29.0001V31.2813C72.5994 32.2709 72.659 32.9219 72.778 33.2344Z" fill="#363843"/>
<path d="M78.1204 27.4064C76.4934 27.4064 75.6798 28.0522 75.6798 29.3438V33.2344H74.4745V26.2814H75.6798V27.2345C75.8683 26.8908 76.1213 26.646 76.4388 26.5001C76.7662 26.3543 77.3267 26.2814 78.1204 26.2814V27.4064Z" fill="#363843"/>
<path d="M82.5996 33.2344C82.2524 33.3594 81.925 33.4219 81.6174 33.4219C81.0023 33.4219 80.5658 33.2761 80.3079 32.9844C80.0599 32.6928 79.9359 32.1667 79.9359 31.4063V27.172H78.7305V26.2814H79.9359V24.8908L81.1412 24.3752V26.2814H82.5996V27.172H81.1412V31.4063C81.1412 31.823 81.1958 32.1042 81.3049 32.25C81.424 32.3959 81.6075 32.4688 81.8555 32.4688C82.1135 32.4688 82.3615 32.4271 82.5996 32.3438V33.2344Z" fill="#363843"/>
<path d="M100.839 29.8126C100.541 29.7813 100.318 29.7657 100.169 29.7657C99.9114 29.7657 99.6485 29.7918 99.3806 29.8438C99.1128 29.8855 98.835 29.9584 98.5473 30.0626C98.2695 30.1563 98.0363 30.3074 97.8479 30.5157C97.6693 30.724 97.58 30.9688 97.58 31.2501C97.58 31.6251 97.704 31.9271 97.952 32.1563C98.21 32.375 98.5225 32.4844 98.8895 32.4844C99.6435 32.4844 100.154 32.25 100.422 31.7813C100.7 31.3126 100.839 30.6563 100.839 29.8126ZM102.238 33.2344H101.062C100.993 32.9115 100.938 32.5782 100.898 32.2344C100.581 32.6615 100.273 32.9688 99.9759 33.1563C99.6782 33.3334 99.3161 33.4219 98.8895 33.4219C98.2546 33.4219 97.6693 33.2448 97.1336 32.8907C96.6078 32.5261 96.3449 32.0313 96.3449 31.4063C96.3449 30.9063 96.454 30.4792 96.6722 30.1251C96.8905 29.7709 97.1881 29.5105 97.5651 29.3438C97.9421 29.1668 98.324 29.0418 98.711 28.9688C99.0979 28.8959 99.5096 28.8595 99.9461 28.8595H100.854C100.874 28.672 100.884 28.5314 100.884 28.4376C100.884 27.5105 100.393 27.047 99.4104 27.047C99.0135 27.047 98.6663 27.1407 98.3687 27.3282C98.081 27.5053 97.9371 27.7814 97.9371 28.1564H96.702C96.702 26.7918 97.5899 26.1095 99.3657 26.1095C100.804 26.1095 101.657 26.5001 101.925 27.2814C102.015 27.521 102.059 28.0939 102.059 29.0001V31.2813C102.059 32.2709 102.119 32.9219 102.238 33.2344Z" fill="#363843"/>
<path d="M108.696 29.8126C108.696 29.0313 108.498 28.3595 108.101 27.797C107.714 27.2241 107.228 26.9376 106.643 26.9376C106.057 26.9376 105.621 27.2189 105.333 27.7814C105.045 28.3334 104.902 28.9793 104.902 29.7188C104.902 30.4688 105.08 31.1094 105.437 31.6407C105.794 32.1615 106.256 32.4219 106.821 32.4219C107.426 32.4219 107.888 32.1563 108.205 31.6251C108.533 31.0834 108.696 30.4792 108.696 29.8126ZM109.916 33.2344H108.741V32.4375C108.205 33.0938 107.55 33.4219 106.777 33.4219C105.973 33.4219 105.259 33.0834 104.634 32.4063C104.009 31.7188 103.696 30.8803 103.696 29.8907C103.696 29.2657 103.776 28.6876 103.934 28.1564C104.093 27.6147 104.386 27.1407 104.812 26.7345C105.249 26.3178 105.789 26.1095 106.434 26.1095C107.476 26.1095 108.245 26.4689 108.741 27.1876V23.1877H109.916V33.2344Z" fill="#363843"/>
<path d="M112.967 33.2344H111.762V26.2814H112.967V33.2344ZM113.012 24.4689H111.717V23.1877H113.012V24.4689Z" fill="#363843"/>
<path d="M119.307 31.6876C119.654 31.1355 119.827 30.4949 119.827 29.7657C119.827 29.0366 119.654 28.3907 119.307 27.8282C118.959 27.2657 118.463 26.9845 117.818 26.9845C117.154 26.9845 116.648 27.2657 116.301 27.8282C115.953 28.3803 115.78 29.0261 115.78 29.7657C115.78 30.5053 115.953 31.1511 116.301 31.7032C116.648 32.2448 117.154 32.5157 117.818 32.5157C118.463 32.5157 118.959 32.2396 119.307 31.6876ZM121.077 29.7657C121.077 30.9532 120.77 31.8594 120.155 32.4844C119.54 33.1094 118.761 33.4219 117.818 33.4219C116.856 33.4219 116.072 33.1094 115.467 32.4844C114.862 31.8594 114.559 30.9532 114.559 29.7657C114.559 28.5678 114.862 27.6616 115.467 27.047C116.072 26.422 116.856 26.1095 117.818 26.1095C118.771 26.1095 119.55 26.422 120.155 27.047C120.77 27.6616 121.077 28.5678 121.077 29.7657Z" fill="#363843"/>
<path d="M132.025 24.4064H128.9V33.2344H127.561V24.4064H124.436V23.1877H132.025V24.4064Z" fill="#363843"/>
<path d="M137.695 29.047C137.705 28.9741 137.71 28.8699 137.71 28.7345C137.71 28.2241 137.571 27.8074 137.293 27.4845C137.025 27.1512 136.593 26.9845 135.998 26.9845C135.026 26.9845 134.436 27.672 134.227 29.047H137.695ZM138.96 31.0157C138.85 31.6824 138.548 32.2501 138.052 32.7188C137.566 33.1875 136.871 33.4219 135.968 33.4219C135.443 33.4219 134.976 33.3073 134.57 33.0782C134.173 32.849 133.86 32.5521 133.632 32.1876C133.404 31.8126 133.235 31.4219 133.126 31.0157C133.017 30.6094 132.962 30.1928 132.962 29.7657C132.962 29.3074 133.017 28.8751 133.126 28.4689C133.235 28.0522 133.404 27.6616 133.632 27.297C133.86 26.9324 134.183 26.646 134.599 26.4376C135.016 26.2189 135.502 26.1095 136.058 26.1095C136.554 26.1095 136.985 26.1876 137.352 26.3439C137.729 26.5001 138.017 26.6928 138.216 26.922C138.424 27.1407 138.588 27.4064 138.707 27.7189C138.836 28.0209 138.915 28.297 138.945 28.547C138.984 28.7866 139.004 29.0366 139.004 29.297C139.004 29.5365 138.989 29.7553 138.96 29.9532H134.227C134.227 30.724 134.371 31.3438 134.659 31.8126C134.947 32.2813 135.393 32.5157 135.998 32.5157C136.544 32.5157 136.946 32.3646 137.204 32.0626C137.471 31.7605 137.635 31.4115 137.695 31.0157H138.96Z" fill="#363843"/>
<path d="M145.924 30.8907C145.924 31.6094 145.711 32.2136 145.284 32.7032C144.858 33.1823 144.183 33.4219 143.26 33.4219C141.316 33.4219 140.344 32.2032 140.344 29.7657C140.344 28.5261 140.562 27.6095 140.998 27.0157C141.445 26.4116 142.154 26.1095 143.126 26.1095C144.029 26.1095 144.709 26.297 145.165 26.672C145.631 27.047 145.864 27.5522 145.864 28.1876C145.864 28.3022 145.86 28.3907 145.85 28.4532H144.674C144.684 28.3907 144.689 28.3022 144.689 28.1876C144.689 27.4272 144.138 27.047 143.037 27.047C142.025 27.047 141.519 27.9532 141.519 29.7657C141.519 30.7344 141.663 31.4324 141.951 31.8594C142.248 32.2761 142.685 32.4844 143.26 32.4844C143.776 32.4844 144.148 32.3178 144.376 31.9844C144.614 31.6407 144.734 31.2761 144.734 30.8907H145.924Z" fill="#363843"/>
<path d="M153.231 33.2344H152.025V28.8595C152.025 28.2449 151.891 27.7814 151.623 27.4689C151.366 27.1564 151.038 27.0001 150.641 27.0001C150.056 27.0001 149.58 27.1616 149.213 27.4845C148.856 27.8074 148.677 28.1459 148.677 28.5001V33.2344H147.472V23.1877H148.677V27.172C149.163 26.4637 149.858 26.1095 150.76 26.1095C151.633 26.1095 152.263 26.3335 152.65 26.7814C153.037 27.2293 153.231 27.9428 153.231 28.922V33.2344Z" fill="#363843"/>
<path d="M160.82 33.2344H159.644V28.6251C159.644 28.1564 159.481 27.7605 159.153 27.4376C158.836 27.1043 158.454 26.9376 158.008 26.9376C157.531 26.9376 157.12 27.1095 156.772 27.4532C156.435 27.797 156.266 28.2241 156.266 28.7345V33.2344H155.061V26.2814H156.266V27.172C156.743 26.4637 157.412 26.1095 158.275 26.1095C159.972 26.1095 160.82 26.9637 160.82 28.672V33.2344Z" fill="#363843"/>
<path d="M167.174 31.6876C167.522 31.1355 167.695 30.4949 167.695 29.7657C167.695 29.0366 167.522 28.3907 167.174 27.8282C166.827 27.2657 166.331 26.9845 165.686 26.9845C165.022 26.9845 164.516 27.2657 164.168 27.8282C163.821 28.3803 163.647 29.0261 163.647 29.7657C163.647 30.5053 163.821 31.1511 164.168 31.7032C164.516 32.2448 165.022 32.5157 165.686 32.5157C166.331 32.5157 166.827 32.2396 167.174 31.6876ZM168.945 29.7657C168.945 30.9532 168.638 31.8594 168.023 32.4844C167.407 33.1094 166.629 33.4219 165.686 33.4219C164.724 33.4219 163.94 33.1094 163.335 32.4844C162.73 31.8594 162.427 30.9532 162.427 29.7657C162.427 28.5678 162.73 27.6616 163.335 27.047C163.94 26.422 164.724 26.1095 165.686 26.1095C166.639 26.1095 167.417 26.422 168.023 27.047C168.638 27.6616 168.945 28.5678 168.945 29.7657Z" fill="#363843"/>
<path d="M171.698 33.2344H170.493V23.1877H171.698V33.2344Z" fill="#363843"/>
<path d="M178.038 31.6876C178.385 31.1355 178.558 30.4949 178.558 29.7657C178.558 29.0366 178.385 28.3907 178.038 27.8282C177.69 27.2657 177.194 26.9845 176.549 26.9845C175.885 26.9845 175.379 27.2657 175.032 27.8282C174.684 28.3803 174.511 29.0261 174.511 29.7657C174.511 30.5053 174.684 31.1511 175.032 31.7032C175.379 32.2448 175.885 32.5157 176.549 32.5157C177.194 32.5157 177.69 32.2396 178.038 31.6876ZM179.808 29.7657C179.808 30.9532 179.501 31.8594 178.886 32.4844C178.271 33.1094 177.492 33.4219 176.549 33.4219C175.587 33.4219 174.803 33.1094 174.198 32.4844C173.593 31.8594 173.29 30.9532 173.29 29.7657C173.29 28.5678 173.593 27.6616 174.198 27.047C174.803 26.422 175.587 26.1095 176.549 26.1095C177.502 26.1095 178.281 26.422 178.886 27.047C179.501 27.6616 179.808 28.5678 179.808 29.7657Z" fill="#363843"/>
<path d="M186.118 29.5626C186.118 28.7709 185.954 28.1459 185.627 27.6876C185.31 27.2189 184.809 26.9845 184.124 26.9845C182.934 26.9845 182.338 27.8334 182.338 29.5313C182.338 30.3438 182.497 30.9844 182.814 31.4532C183.132 31.9219 183.593 32.1563 184.198 32.1563C184.853 32.1563 185.334 31.9115 185.642 31.4219C185.959 30.9219 186.118 30.3022 186.118 29.5626ZM187.338 32.8438C187.338 33.7709 187.056 34.5261 186.49 35.1094C185.925 35.7031 185.131 36 184.109 36C183.593 36 183.147 35.9167 182.77 35.75C182.403 35.5938 182.13 35.3906 181.951 35.1406C181.773 34.8906 181.644 34.6511 181.564 34.4219C181.485 34.2031 181.445 33.9948 181.445 33.7969H182.681C182.681 34.2344 182.844 34.5677 183.172 34.7969C183.499 35.0261 183.886 35.1406 184.332 35.1406C184.957 35.1406 185.414 34.9011 185.701 34.4219C185.989 33.9531 186.133 33.1302 186.133 31.9532C185.954 32.2761 185.667 32.5417 185.27 32.75C184.873 32.948 184.461 33.0469 184.035 33.0469C183.112 33.0469 182.393 32.7553 181.877 32.1719C181.371 31.5886 181.118 30.7084 181.118 29.5313C181.118 28.5418 181.376 27.7241 181.892 27.0782C182.408 26.4324 183.077 26.1095 183.901 26.1095C185.052 26.1095 185.796 26.422 186.133 27.047V26.2814H187.338V32.8438Z" fill="#363843"/>
<path d="M190.374 33.2344H189.169V26.2814H190.374V33.2344ZM190.419 24.4689H189.124V23.1877H190.419V24.4689Z" fill="#363843"/>
<path d="M196.699 29.047C196.709 28.9741 196.714 28.8699 196.714 28.7345C196.714 28.2241 196.575 27.8074 196.297 27.4845C196.029 27.1512 195.597 26.9845 195.002 26.9845C194.03 26.9845 193.44 27.672 193.231 29.047H196.699ZM197.964 31.0157C197.854 31.6824 197.552 32.2501 197.056 32.7188C196.57 33.1875 195.875 33.4219 194.972 33.4219C194.447 33.4219 193.98 33.3073 193.574 33.0782C193.177 32.849 192.864 32.5521 192.636 32.1876C192.408 31.8126 192.239 31.4219 192.13 31.0157C192.021 30.6094 191.966 30.1928 191.966 29.7657C191.966 29.3074 192.021 28.8751 192.13 28.4689C192.239 28.0522 192.408 27.6616 192.636 27.297C192.864 26.9324 193.187 26.646 193.603 26.4376C194.02 26.2189 194.506 26.1095 195.062 26.1095C195.558 26.1095 195.989 26.1876 196.356 26.3439C196.733 26.5001 197.021 26.6928 197.219 26.922C197.428 27.1407 197.591 27.4064 197.711 27.7189C197.839 28.0209 197.919 28.297 197.949 28.547C197.988 28.7866 198.008 29.0366 198.008 29.297C198.008 29.5365 197.993 29.7553 197.964 29.9532H193.231C193.231 30.724 193.375 31.3438 193.663 31.8126C193.951 32.2813 194.397 32.5157 195.002 32.5157C195.548 32.5157 195.95 32.3646 196.208 32.0626C196.475 31.7605 196.639 31.4115 196.699 31.0157H197.964Z" fill="#363843"/>
<path d="M204.675 31.2032C204.675 31.9844 204.397 32.5521 203.842 32.9063C203.286 33.25 202.597 33.4219 201.773 33.4219C201.049 33.4219 200.464 33.2448 200.017 32.8907C199.571 32.5365 199.347 31.9792 199.347 31.2188H200.553C200.563 32.0834 201.024 32.5157 201.937 32.5157C202.334 32.5157 202.686 32.4115 202.993 32.2032C203.301 31.9844 203.455 31.6824 203.455 31.2969C203.455 30.974 203.316 30.7344 203.038 30.5782C202.77 30.4115 202.443 30.297 202.056 30.2345C201.669 30.1615 201.282 30.073 200.895 29.9688C200.508 29.8647 200.176 29.6511 199.898 29.3282C199.63 29.0053 199.496 28.5678 199.496 28.0157C199.496 27.4845 199.69 27.0366 200.077 26.672C200.473 26.297 201.108 26.1095 201.981 26.1095C202.775 26.1095 203.39 26.2553 203.827 26.547C204.263 26.8387 204.481 27.3751 204.481 28.1564H203.276C203.276 27.3751 202.835 26.9845 201.952 26.9845C201.604 26.9845 201.307 27.0835 201.059 27.2814C200.821 27.4689 200.702 27.7137 200.702 28.0157C200.702 28.3386 200.836 28.5886 201.103 28.7657C201.381 28.9324 201.714 29.0522 202.1 29.1251C202.497 29.198 202.889 29.2866 203.276 29.3907C203.663 29.4949 203.99 29.698 204.258 30.0001C204.536 30.2917 204.675 30.6928 204.675 31.2032Z" fill="#363843"/>
<path d="M89.5659 33.2344H88.4207V23.7463H92.2107C93.0469 23.7463 93.6967 23.9774 94.1602 24.4396C94.6329 24.9018 94.8692 25.5678 94.8692 26.4378C94.8692 27.1356 94.7056 27.711 94.3784 28.1641C94.0603 28.6082 93.5877 28.9027 92.9605 29.0477L95.1418 33.2344H93.8467L91.7881 29.1564H89.5659V33.2344ZM92.2107 28.1777C92.6651 28.1777 93.0151 28.0599 93.2605 27.8243C93.5149 27.5887 93.6422 27.2534 93.6422 26.8184V26.1115C93.6422 25.6766 93.5149 25.3413 93.2605 25.1056C93.0151 24.87 92.6651 24.7522 92.2107 24.7522H89.5659V28.1777H92.2107Z" fill="#363843"/>
<path d="M55.9911 14.6564L55.0159 11.4376H50.4714L49.4962 14.6564H46.4925L50.9785 1.12192H54.6453L59.0728 14.6564H55.9911ZM52.7729 3.79779H52.6754L51.1736 8.93622H54.2943L52.7729 3.79779Z" fill="#363843"/>
<path d="M60.2737 14.6564V1.12192H69.5382V3.73961H63.2383V6.51243H68.641V9.11074H63.2383V12.0387H69.5382V14.6564H60.2737Z" fill="#363843"/>
<path d="M74.403 14.6564H71.4384V1.12192H77.8943C78.5184 1.12192 79.0841 1.22533 79.5912 1.43216C80.0983 1.639 80.5274 1.93631 80.8785 2.32412C81.2425 2.699 81.5221 3.15144 81.7171 3.68144C81.9122 4.21145 82.0097 4.79962 82.0097 5.44596C82.0097 6.36377 81.8017 7.16524 81.3856 7.85037C80.9825 8.53549 80.3648 9.03318 79.5327 9.34342L82.2048 14.6564H78.9085L76.529 9.69245H74.403V14.6564ZM77.5237 7.21048C77.9658 7.21048 78.3104 7.10061 78.5574 6.88085C78.8175 6.64816 78.9475 6.31207 78.9475 5.87255V5.01938C78.9475 4.57986 78.8175 4.25023 78.5574 4.03047C78.3104 3.79779 77.9658 3.68144 77.5237 3.68144H74.403V7.21048H77.5237Z" fill="#363843"/>
<path d="M89.169 14.8891C88.2718 14.8891 87.4526 14.7404 86.7115 14.4431C85.9703 14.1458 85.3397 13.7062 84.8195 13.1245C84.2994 12.5299 83.8963 11.7995 83.6103 10.9334C83.3242 10.0544 83.1812 9.03964 83.1812 7.88915C83.1812 6.73865 83.3242 5.73036 83.6103 4.86425C83.8963 3.98523 84.2994 3.25486 84.8195 2.67315C85.3397 2.07851 85.9703 1.63253 86.7115 1.33521C87.4526 1.03789 88.2718 0.889235 89.169 0.889235C90.0662 0.889235 90.8854 1.03789 91.6265 1.33521C92.3677 1.63253 92.9983 2.07851 93.5185 2.67315C94.0386 3.25486 94.4417 3.98523 94.7277 4.86425C95.0138 5.73036 95.1568 6.73865 95.1568 7.88915C95.1568 9.03964 95.0138 10.0544 94.7277 10.9334C94.4417 11.7995 94.0386 12.5299 93.5185 13.1245C92.9983 13.7062 92.3677 14.1458 91.6265 14.4431C90.8854 14.7404 90.0662 14.8891 89.169 14.8891ZM89.169 12.2714C90.0662 12.2714 90.7619 11.9805 91.256 11.3988C91.7631 10.8171 92.0166 9.9833 92.0166 8.89744V6.88085C92.0166 5.79499 91.7631 4.96121 91.256 4.3795C90.7619 3.79779 90.0662 3.50693 89.169 3.50693C88.2718 3.50693 87.5696 3.79779 87.0625 4.3795C86.5684 4.96121 86.3214 5.79499 86.3214 6.88085V8.89744C86.3214 9.9833 86.5684 10.8171 87.0625 11.3988C87.5696 11.9805 88.2718 12.2714 89.169 12.2714Z" fill="#363843"/>
<path d="M107.13 5.7756H107.071L106.077 7.75341L103.424 12.5428L100.83 7.7728L99.7963 5.63987H99.7377V14.6564H96.9486V1.12192H100.089L103.424 7.46256H103.463L106.759 1.12192H109.919V14.6564H107.13V5.7756Z" fill="#363843"/>
<path d="M120.633 14.6564L119.658 11.4376H115.114L114.138 14.6564H111.135L115.621 1.12192H119.288L123.715 14.6564H120.633ZM117.415 3.79779H117.318L115.816 8.93622H118.937L117.415 3.79779Z" fill="#363843"/>
<path d="M127.881 14.6564H124.916V1.12192H131.372C131.996 1.12192 132.562 1.22533 133.069 1.43216C133.576 1.639 134.005 1.93631 134.356 2.32412C134.72 2.699 135 3.15144 135.195 3.68144C135.39 4.21145 135.487 4.79962 135.487 5.44596C135.487 6.36377 135.279 7.16524 134.863 7.85037C134.46 8.53549 133.842 9.03318 133.01 9.34342L135.682 14.6564H132.386L130.007 9.69245H127.881V14.6564ZM131.001 7.21048C131.443 7.21048 131.788 7.10061 132.035 6.88085C132.295 6.64816 132.425 6.31207 132.425 5.87255V5.01938C132.425 4.57986 132.295 4.25023 132.035 4.03047C131.788 3.79779 131.443 3.68144 131.001 3.68144H127.881V7.21048H131.001Z" fill="#363843"/>
<path d="M136.849 14.6564V12.3101H138.605V3.46815H136.849V1.12192H143.325V3.46815H141.569V12.3101H143.325V14.6564H136.849Z" fill="#363843"/>
<path d="M149.266 8.25756L147.96 5.54292H147.901V14.6564H145.112V1.12192H148.35L152.075 7.52073L153.382 10.2354H153.44V1.12192H156.23V14.6564H152.992L149.266 8.25756Z" fill="#363843"/>
<path d="M158.543 14.6564V1.12192H167.808V3.73961H161.508V6.51243H166.911V9.11074H161.508V12.0387H167.808V14.6564H158.543Z" fill="#363843"/>
<path d="M178.043 14.8891C176.847 14.8891 175.832 14.6887 175 14.288C174.168 13.8743 173.459 13.3443 172.874 12.6979L174.825 10.7395C175.748 11.7737 176.886 12.2908 178.238 12.2908C178.966 12.2908 179.506 12.1421 179.857 11.8448C180.208 11.5475 180.383 11.1532 180.383 10.662C180.383 10.2871 180.279 9.97684 180.071 9.73123C179.863 9.47269 179.441 9.29818 178.803 9.20769L177.458 9.03317C176.014 8.8522 174.955 8.41915 174.278 7.73402C173.615 7.0489 173.284 6.13755 173.284 4.99999C173.284 4.39242 173.401 3.83657 173.635 3.33242C173.869 2.82827 174.2 2.39522 174.63 2.03327C175.072 1.67131 175.605 1.39338 176.229 1.19948C176.866 0.992651 177.588 0.889235 178.394 0.889235C179.421 0.889235 180.325 1.05082 181.105 1.37399C181.885 1.69717 182.555 2.169 183.114 2.78949L181.144 4.7673C180.819 4.39242 180.422 4.08864 179.954 3.85596C179.499 3.61035 178.92 3.48754 178.218 3.48754C177.555 3.48754 177.061 3.60388 176.736 3.83657C176.411 4.06925 176.248 4.39242 176.248 4.80608C176.248 5.27145 176.372 5.60755 176.619 5.81438C176.879 6.02121 177.295 6.16987 177.867 6.26036L179.213 6.47365C180.617 6.69341 181.658 7.12646 182.334 7.7728C183.01 8.40622 183.348 9.3111 183.348 10.4875C183.348 11.1338 183.231 11.7284 182.997 12.2714C182.763 12.8143 182.418 13.2797 181.963 13.6675C181.521 14.0553 180.968 14.3591 180.305 14.5788C179.642 14.7856 178.888 14.8891 178.043 14.8891Z" fill="#363843"/>
<path d="M188.088 14.6564H185.123V1.12192H191.579C192.203 1.12192 192.769 1.22533 193.276 1.43216C193.783 1.639 194.212 1.93631 194.563 2.32412C194.927 2.699 195.207 3.15144 195.402 3.68144C195.597 4.21145 195.695 4.79962 195.695 5.44596C195.695 6.36377 195.487 7.16524 195.07 7.85037C194.667 8.53549 194.05 9.03318 193.218 9.34342L195.89 14.6564H192.593L190.214 9.69245H188.088V14.6564ZM191.209 7.21048C191.651 7.21048 191.995 7.10061 192.242 6.88085C192.502 6.64816 192.632 6.31207 192.632 5.87255V5.01938C192.632 4.57986 192.502 4.25023 192.242 4.03047C191.995 3.79779 191.651 3.68144 191.209 3.68144H188.088V7.21048H191.209Z" fill="#363843"/>
<path d="M202.783 3.73961V14.6564H199.818V3.73961H196.132V1.12192H206.469V3.73961H202.783Z" fill="#363843"/>
<path fill-rule="evenodd" clip-rule="evenodd" d="M0 9.81806C0 4.39569 4.43204 0 9.89924 0H26.398C31.8652 0 36.2972 4.39569 36.2972 9.81806V26.1815C36.2972 31.6038 31.8652 35.9995 26.398 35.9995H9.89924C4.43204 35.9995 0 31.6038 0 26.1815V9.81806ZM21.5005 1.99997H26.398C30.7515 1.99997 34.2807 5.50025 34.2807 9.81806V26.8048L29.6971 17.9504H24.3537L18.1656 30.5432L11.9895 17.9504H6.6254L2.02093 26.9075L2.01651 23.7442V9.81806C2.01651 5.50025 5.54573 1.99997 9.89924 1.99997H14.8352L7.81847 15.6558H13.2156L18.1656 5.96059L23.1795 15.6558H28.5767L21.5005 1.99997ZM4.80286 32.0016C5.92123 33.6288 7.83109 33.9996 9.89924 33.9996H14.9036L9.732 22.3971L4.80286 32.0016ZM21.4915 33.9996H26.398C28.9324 33.9996 30.1397 33.8524 31.5818 32.0092L26.7883 22.7172L21.4915 33.9996Z" fill="#363843"/>
</svg>
