<svg width="24" height="24" viewBox="0 0 24 24" fill="none" xmlns="http://www.w3.org/2000/svg">
<path d="M6.23438 11.8089C6.23435 11.735 6.24889 11.6618 6.27716 11.5936C6.30543 11.5253 6.34687 11.4632 6.39913 11.411C6.45138 11.3587 6.51342 11.3173 6.5817 11.289C6.64998 11.2608 6.72316 11.2462 6.79706 11.2462L16.8127 11.2462C16.8873 11.2449 16.9615 11.2585 17.0309 11.2861C17.1003 11.3138 17.1635 11.3549 17.2168 11.4073C17.2701 11.4596 17.3124 11.522 17.3413 11.5909C17.3703 11.6598 17.3852 11.7337 17.3852 11.8084C17.3852 11.8831 17.3704 11.957 17.3415 12.0259C17.3127 12.0948 17.2704 12.1573 17.2172 12.2097C17.1639 12.262 17.1008 12.3033 17.0314 12.331C16.9621 12.3587 16.8879 12.3723 16.8132 12.3711H6.79759C6.64852 12.371 6.50559 12.3117 6.40019 12.2063C6.29478 12.1009 6.23553 11.958 6.23544 11.8089H6.23438Z" fill="#363843"/>
<path d="M11.6415 6.63741C11.747 6.53192 11.89 6.47266 12.0392 6.47266C12.1884 6.47266 12.3315 6.53192 12.437 6.63741L17.2099 11.4104C17.3154 11.5159 17.3747 11.6589 17.3747 11.8081C17.3747 11.9573 17.3154 12.1004 17.2099 12.2059L12.437 16.9788C12.3315 17.0843 12.1884 17.1436 12.0392 17.1436C11.89 17.1436 11.747 17.0843 11.6415 16.9788C11.536 16.8734 11.4767 16.7303 11.4767 16.5811C11.4767 16.4319 11.536 16.2888 11.6415 16.1834L16.0167 11.8081L11.6415 7.4329C11.536 7.32741 11.4767 7.18434 11.4767 7.03516C11.4767 6.88597 11.536 6.7429 11.6415 6.63741Z" fill="#363843"/>
</svg>
