<svg width="89" height="77" viewBox="0 0 89 77" fill="none" xmlns="http://www.w3.org/2000/svg">
<mask id="path-1-inside-1_9181_5743" fill="white">
<path d="M61.6737 26.1299C62.9089 26.1299 64.1165 25.7636 65.1435 25.0773C66.1706 24.3911 66.9711 23.4156 67.4439 22.2744C67.9166 21.1331 68.0403 19.8774 67.7993 18.6658C67.5583 17.4543 66.9634 16.3414 66.09 15.468C65.2165 14.5945 64.1036 13.9997 62.8921 13.7587C61.6806 13.5177 60.4248 13.6414 59.2836 14.1141C58.1423 14.5868 57.1669 15.3873 56.4806 16.4144C55.7943 17.4415 55.428 18.649 55.428 19.8843C55.428 21.5407 56.0861 23.1293 57.2573 24.3006C58.4286 25.4719 60.0172 26.1299 61.6737 26.1299ZM61.6737 16.7615C62.2913 16.7615 62.8951 16.9446 63.4086 17.2878C63.9221 17.6309 64.3224 18.1186 64.5588 18.6892C64.7951 19.2599 64.8569 19.8878 64.7365 20.4935C64.616 21.0993 64.3186 21.6557 63.8818 22.0924C63.4451 22.5292 62.8887 22.8266 62.2829 22.9471C61.6771 23.0676 61.0492 23.0057 60.4786 22.7694C59.908 22.533 59.4203 22.1328 59.0771 21.6192C58.734 21.1057 58.5508 20.5019 58.5508 19.8843C58.5508 19.0561 58.8799 18.2618 59.4655 17.6761C60.0511 17.0905 60.8454 16.7615 61.6737 16.7615ZM54.6473 42.5246C54.2332 42.5246 53.8361 42.6891 53.5433 42.982C53.2504 43.2748 53.0859 43.6719 53.0859 44.086C53.0859 44.5002 53.2504 44.8973 53.5433 45.1901C53.8361 45.4829 54.2332 45.6474 54.6473 45.6474H68.7C69.1141 45.6474 69.5112 45.4829 69.8041 45.1901C70.0969 44.8973 70.2614 44.5002 70.2614 44.086C70.2614 43.6719 70.0969 43.2748 69.8041 42.982C69.5112 42.6891 69.1141 42.5246 68.7 42.5246H67.9193V32.3755H68.7C69.1141 32.3755 69.5112 32.211 69.8041 31.9182C70.0969 31.6254 70.2614 31.2282 70.2614 30.8141C70.2614 30.4 70.0969 30.0029 69.8041 29.71C69.5112 29.4172 69.1141 29.2527 68.7 29.2527H54.6473C54.2332 29.2527 53.8361 29.4172 53.5433 29.71C53.2504 30.0029 53.0859 30.4 53.0859 30.8141C53.0859 31.2282 53.2504 31.6254 53.5433 31.9182C53.8361 32.211 54.2332 32.3755 54.6473 32.3755H55.428V42.5246H54.6473ZM58.5508 32.3755H64.7965V42.5246H58.5508V32.3755Z"/>
<path d="M87.4386 9.73419C87.0245 9.73419 86.6273 9.8987 86.3345 10.1915C86.0417 10.4843 85.8772 10.8815 85.8772 11.2956V68.2868H52.307C51.8929 68.2868 51.4958 68.4513 51.2029 68.7441C50.9101 69.037 50.7456 69.4341 50.7456 69.8482C50.7456 71.4096 48.8173 72.971 44.5 72.971C42.0954 72.971 38.2544 72.2528 38.2544 69.8482C38.227 69.4431 38.0537 69.0617 37.7666 68.7746C37.4795 68.4875 37.0981 68.3142 36.693 68.2868H3.12281V11.2956C3.12281 10.8815 2.9583 10.4843 2.66548 10.1915C2.37266 9.8987 1.97551 9.73419 1.5614 9.73419C1.14729 9.73419 0.750144 9.8987 0.457324 10.1915C0.164504 10.4843 0 10.8815 0 11.2956V69.8482C0 70.2623 0.164504 70.6595 0.457324 70.9523C0.750144 71.2451 1.14729 71.4096 1.5614 71.4096H35.358C36.4666 74.954 40.737 76.0938 44.5 76.0938C49.879 76.0938 52.7832 73.9235 53.6108 71.4096H87.4386C87.8527 71.4096 88.2499 71.2451 88.5427 70.9523C88.8355 70.6595 89 70.2623 89 69.8482V11.2956C89 10.8815 88.8355 10.4843 88.5427 10.1915C88.2499 9.8987 87.8527 9.73419 87.4386 9.73419Z"/>
<path d="M10.9905 62.5735C11.0451 62.5423 16.838 58.9198 27.3228 58.9198C38.0652 58.9198 43.4052 63.1668 43.4989 63.2449C43.7759 63.4666 44.12 63.5874 44.4748 63.5874C44.8296 63.5874 45.1737 63.4666 45.4507 63.2449C45.5053 63.2371 51.2669 58.9198 61.6737 58.9198C72.4161 58.9198 77.7561 63.1668 77.8498 63.2449C78.078 63.435 78.3556 63.556 78.6501 63.5938C78.9447 63.6317 79.2439 63.5847 79.5127 63.4585C79.7815 63.3323 80.0087 63.1321 80.1678 62.8813C80.3268 62.6305 80.411 62.3396 80.4105 62.0426V7.3935C80.4105 7.13976 80.3486 6.88985 80.2303 6.66539C80.1119 6.44094 79.9407 6.24871 79.7313 6.10535C79.3956 5.87113 71.2685 0.367188 61.6737 0.367188C55.5765 0.426584 49.6212 2.21319 44.4982 5.51982C42.0312 4.0521 35.1688 0.367188 27.3228 0.367188C20.8313 0.407178 14.5067 2.42821 9.19489 6.15999C9.00593 6.30545 8.85281 6.49225 8.74725 6.70607C8.64169 6.91989 8.58651 7.15505 8.58594 7.3935V61.2619C8.5864 61.542 8.66219 61.8168 8.80535 62.0575C8.94852 62.2982 9.15379 62.496 9.39966 62.6301C9.64553 62.7642 9.92294 62.8297 10.2028 62.8197C10.4827 62.8098 10.7548 62.7247 10.9905 62.5735ZM77.2877 8.25227V59.2243C74.4616 57.7488 69.2933 55.797 61.6737 55.797C56.2666 55.7043 50.915 56.8978 46.0596 59.2789V8.1742C50.7173 5.16918 56.131 3.54508 61.6737 3.48999C68.7937 3.48999 75.2345 7.01096 77.2877 8.25227ZM11.7087 8.1742C16.3664 5.16918 21.7801 3.54508 27.3228 3.48999C34.4428 3.48999 40.8836 7.01096 42.9368 8.25227V59.2243C40.1107 57.7488 34.9424 55.797 27.3228 55.797C21.9735 55.7044 16.6612 56.7005 11.7087 58.7246V8.1742Z"/>
</mask>
<path d="M61.6737 26.1299C62.9089 26.1299 64.1165 25.7636 65.1435 25.0773C66.1706 24.3911 66.9711 23.4156 67.4439 22.2744C67.9166 21.1331 68.0403 19.8774 67.7993 18.6658C67.5583 17.4543 66.9634 16.3414 66.09 15.468C65.2165 14.5945 64.1036 13.9997 62.8921 13.7587C61.6806 13.5177 60.4248 13.6414 59.2836 14.1141C58.1423 14.5868 57.1669 15.3873 56.4806 16.4144C55.7943 17.4415 55.428 18.649 55.428 19.8843C55.428 21.5407 56.0861 23.1293 57.2573 24.3006C58.4286 25.4719 60.0172 26.1299 61.6737 26.1299ZM61.6737 16.7615C62.2913 16.7615 62.8951 16.9446 63.4086 17.2878C63.9221 17.6309 64.3224 18.1186 64.5588 18.6892C64.7951 19.2599 64.8569 19.8878 64.7365 20.4935C64.616 21.0993 64.3186 21.6557 63.8818 22.0924C63.4451 22.5292 62.8887 22.8266 62.2829 22.9471C61.6771 23.0676 61.0492 23.0057 60.4786 22.7694C59.908 22.533 59.4203 22.1328 59.0771 21.6192C58.734 21.1057 58.5508 20.5019 58.5508 19.8843C58.5508 19.0561 58.8799 18.2618 59.4655 17.6761C60.0511 17.0905 60.8454 16.7615 61.6737 16.7615ZM54.6473 42.5246C54.2332 42.5246 53.8361 42.6891 53.5433 42.982C53.2504 43.2748 53.0859 43.6719 53.0859 44.086C53.0859 44.5002 53.2504 44.8973 53.5433 45.1901C53.8361 45.4829 54.2332 45.6474 54.6473 45.6474H68.7C69.1141 45.6474 69.5112 45.4829 69.8041 45.1901C70.0969 44.8973 70.2614 44.5002 70.2614 44.086C70.2614 43.6719 70.0969 43.2748 69.8041 42.982C69.5112 42.6891 69.1141 42.5246 68.7 42.5246H67.9193V32.3755H68.7C69.1141 32.3755 69.5112 32.211 69.8041 31.9182C70.0969 31.6254 70.2614 31.2282 70.2614 30.8141C70.2614 30.4 70.0969 30.0029 69.8041 29.71C69.5112 29.4172 69.1141 29.2527 68.7 29.2527H54.6473C54.2332 29.2527 53.8361 29.4172 53.5433 29.71C53.2504 30.0029 53.0859 30.4 53.0859 30.8141C53.0859 31.2282 53.2504 31.6254 53.5433 31.9182C53.8361 32.211 54.2332 32.3755 54.6473 32.3755H55.428V42.5246H54.6473ZM58.5508 32.3755H64.7965V42.5246H58.5508V32.3755Z" fill="#363843"/>
<path d="M87.4386 9.73419C87.0245 9.73419 86.6273 9.8987 86.3345 10.1915C86.0417 10.4843 85.8772 10.8815 85.8772 11.2956V68.2868H52.307C51.8929 68.2868 51.4958 68.4513 51.2029 68.7441C50.9101 69.037 50.7456 69.4341 50.7456 69.8482C50.7456 71.4096 48.8173 72.971 44.5 72.971C42.0954 72.971 38.2544 72.2528 38.2544 69.8482C38.227 69.4431 38.0537 69.0617 37.7666 68.7746C37.4795 68.4875 37.0981 68.3142 36.693 68.2868H3.12281V11.2956C3.12281 10.8815 2.9583 10.4843 2.66548 10.1915C2.37266 9.8987 1.97551 9.73419 1.5614 9.73419C1.14729 9.73419 0.750144 9.8987 0.457324 10.1915C0.164504 10.4843 0 10.8815 0 11.2956V69.8482C0 70.2623 0.164504 70.6595 0.457324 70.9523C0.750144 71.2451 1.14729 71.4096 1.5614 71.4096H35.358C36.4666 74.954 40.737 76.0938 44.5 76.0938C49.879 76.0938 52.7832 73.9235 53.6108 71.4096H87.4386C87.8527 71.4096 88.2499 71.2451 88.5427 70.9523C88.8355 70.6595 89 70.2623 89 69.8482V11.2956C89 10.8815 88.8355 10.4843 88.5427 10.1915C88.2499 9.8987 87.8527 9.73419 87.4386 9.73419Z" fill="#363843"/>
<path d="M10.9905 62.5735C11.0451 62.5423 16.838 58.9198 27.3228 58.9198C38.0652 58.9198 43.4052 63.1668 43.4989 63.2449C43.7759 63.4666 44.12 63.5874 44.4748 63.5874C44.8296 63.5874 45.1737 63.4666 45.4507 63.2449C45.5053 63.2371 51.2669 58.9198 61.6737 58.9198C72.4161 58.9198 77.7561 63.1668 77.8498 63.2449C78.078 63.435 78.3556 63.556 78.6501 63.5938C78.9447 63.6317 79.2439 63.5847 79.5127 63.4585C79.7815 63.3323 80.0087 63.1321 80.1678 62.8813C80.3268 62.6305 80.411 62.3396 80.4105 62.0426V7.3935C80.4105 7.13976 80.3486 6.88985 80.2303 6.66539C80.1119 6.44094 79.9407 6.24871 79.7313 6.10535C79.3956 5.87113 71.2685 0.367188 61.6737 0.367188C55.5765 0.426584 49.6212 2.21319 44.4982 5.51982C42.0312 4.0521 35.1688 0.367188 27.3228 0.367188C20.8313 0.407178 14.5067 2.42821 9.19489 6.15999C9.00593 6.30545 8.85281 6.49225 8.74725 6.70607C8.64169 6.91989 8.58651 7.15505 8.58594 7.3935V61.2619C8.5864 61.542 8.66219 61.8168 8.80535 62.0575C8.94852 62.2982 9.15379 62.496 9.39966 62.6301C9.64553 62.7642 9.92294 62.8297 10.2028 62.8197C10.4827 62.8098 10.7548 62.7247 10.9905 62.5735ZM77.2877 8.25227V59.2243C74.4616 57.7488 69.2933 55.797 61.6737 55.797C56.2666 55.7043 50.915 56.8978 46.0596 59.2789V8.1742C50.7173 5.16918 56.131 3.54508 61.6737 3.48999C68.7937 3.48999 75.2345 7.01096 77.2877 8.25227ZM11.7087 8.1742C16.3664 5.16918 21.7801 3.54508 27.3228 3.48999C34.4428 3.48999 40.8836 7.01096 42.9368 8.25227V59.2243C40.1107 57.7488 34.9424 55.797 27.3228 55.797C21.9735 55.7044 16.6612 56.7005 11.7087 58.7246V8.1742Z" fill="#363843"/>
<path d="M61.6737 26.1299C62.9089 26.1299 64.1165 25.7636 65.1435 25.0773C66.1706 24.3911 66.9711 23.4156 67.4439 22.2744C67.9166 21.1331 68.0403 19.8774 67.7993 18.6658C67.5583 17.4543 66.9634 16.3414 66.09 15.468C65.2165 14.5945 64.1036 13.9997 62.8921 13.7587C61.6806 13.5177 60.4248 13.6414 59.2836 14.1141C58.1423 14.5868 57.1669 15.3873 56.4806 16.4144C55.7943 17.4415 55.428 18.649 55.428 19.8843C55.428 21.5407 56.0861 23.1293 57.2573 24.3006C58.4286 25.4719 60.0172 26.1299 61.6737 26.1299ZM61.6737 16.7615C62.2913 16.7615 62.8951 16.9446 63.4086 17.2878C63.9221 17.6309 64.3224 18.1186 64.5588 18.6892C64.7951 19.2599 64.8569 19.8878 64.7365 20.4935C64.616 21.0993 64.3186 21.6557 63.8818 22.0924C63.4451 22.5292 62.8887 22.8266 62.2829 22.9471C61.6771 23.0676 61.0492 23.0057 60.4786 22.7694C59.908 22.533 59.4203 22.1328 59.0771 21.6192C58.734 21.1057 58.5508 20.5019 58.5508 19.8843C58.5508 19.0561 58.8799 18.2618 59.4655 17.6761C60.0511 17.0905 60.8454 16.7615 61.6737 16.7615ZM54.6473 42.5246C54.2332 42.5246 53.8361 42.6891 53.5433 42.982C53.2504 43.2748 53.0859 43.6719 53.0859 44.086C53.0859 44.5002 53.2504 44.8973 53.5433 45.1901C53.8361 45.4829 54.2332 45.6474 54.6473 45.6474H68.7C69.1141 45.6474 69.5112 45.4829 69.8041 45.1901C70.0969 44.8973 70.2614 44.5002 70.2614 44.086C70.2614 43.6719 70.0969 43.2748 69.8041 42.982C69.5112 42.6891 69.1141 42.5246 68.7 42.5246H67.9193V32.3755H68.7C69.1141 32.3755 69.5112 32.211 69.8041 31.9182C70.0969 31.6254 70.2614 31.2282 70.2614 30.8141C70.2614 30.4 70.0969 30.0029 69.8041 29.71C69.5112 29.4172 69.1141 29.2527 68.7 29.2527H54.6473C54.2332 29.2527 53.8361 29.4172 53.5433 29.71C53.2504 30.0029 53.0859 30.4 53.0859 30.8141C53.0859 31.2282 53.2504 31.6254 53.5433 31.9182C53.8361 32.211 54.2332 32.3755 54.6473 32.3755H55.428V42.5246H54.6473ZM58.5508 32.3755H64.7965V42.5246H58.5508V32.3755Z" stroke="white" stroke-width="1.8" mask="url(#path-1-inside-1_9181_5743)"/>
<path d="M87.4386 9.73419C87.0245 9.73419 86.6273 9.8987 86.3345 10.1915C86.0417 10.4843 85.8772 10.8815 85.8772 11.2956V68.2868H52.307C51.8929 68.2868 51.4958 68.4513 51.2029 68.7441C50.9101 69.037 50.7456 69.4341 50.7456 69.8482C50.7456 71.4096 48.8173 72.971 44.5 72.971C42.0954 72.971 38.2544 72.2528 38.2544 69.8482C38.227 69.4431 38.0537 69.0617 37.7666 68.7746C37.4795 68.4875 37.0981 68.3142 36.693 68.2868H3.12281V11.2956C3.12281 10.8815 2.9583 10.4843 2.66548 10.1915C2.37266 9.8987 1.97551 9.73419 1.5614 9.73419C1.14729 9.73419 0.750144 9.8987 0.457324 10.1915C0.164504 10.4843 0 10.8815 0 11.2956V69.8482C0 70.2623 0.164504 70.6595 0.457324 70.9523C0.750144 71.2451 1.14729 71.4096 1.5614 71.4096H35.358C36.4666 74.954 40.737 76.0938 44.5 76.0938C49.879 76.0938 52.7832 73.9235 53.6108 71.4096H87.4386C87.8527 71.4096 88.2499 71.2451 88.5427 70.9523C88.8355 70.6595 89 70.2623 89 69.8482V11.2956C89 10.8815 88.8355 10.4843 88.5427 10.1915C88.2499 9.8987 87.8527 9.73419 87.4386 9.73419Z" stroke="white" stroke-width="1.8" mask="url(#path-1-inside-1_9181_5743)"/>
<path d="M10.9905 62.5735C11.0451 62.5423 16.838 58.9198 27.3228 58.9198C38.0652 58.9198 43.4052 63.1668 43.4989 63.2449C43.7759 63.4666 44.12 63.5874 44.4748 63.5874C44.8296 63.5874 45.1737 63.4666 45.4507 63.2449C45.5053 63.2371 51.2669 58.9198 61.6737 58.9198C72.4161 58.9198 77.7561 63.1668 77.8498 63.2449C78.078 63.435 78.3556 63.556 78.6501 63.5938C78.9447 63.6317 79.2439 63.5847 79.5127 63.4585C79.7815 63.3323 80.0087 63.1321 80.1678 62.8813C80.3268 62.6305 80.411 62.3396 80.4105 62.0426V7.3935C80.4105 7.13976 80.3486 6.88985 80.2303 6.66539C80.1119 6.44094 79.9407 6.24871 79.7313 6.10535C79.3956 5.87113 71.2685 0.367188 61.6737 0.367188C55.5765 0.426584 49.6212 2.21319 44.4982 5.51982C42.0312 4.0521 35.1688 0.367188 27.3228 0.367188C20.8313 0.407178 14.5067 2.42821 9.19489 6.15999C9.00593 6.30545 8.85281 6.49225 8.74725 6.70607C8.64169 6.91989 8.58651 7.15505 8.58594 7.3935V61.2619C8.5864 61.542 8.66219 61.8168 8.80535 62.0575C8.94852 62.2982 9.15379 62.496 9.39966 62.6301C9.64553 62.7642 9.92294 62.8297 10.2028 62.8197C10.4827 62.8098 10.7548 62.7247 10.9905 62.5735ZM77.2877 8.25227V59.2243C74.4616 57.7488 69.2933 55.797 61.6737 55.797C56.2666 55.7043 50.915 56.8978 46.0596 59.2789V8.1742C50.7173 5.16918 56.131 3.54508 61.6737 3.48999C68.7937 3.48999 75.2345 7.01096 77.2877 8.25227ZM11.7087 8.1742C16.3664 5.16918 21.7801 3.54508 27.3228 3.48999C34.4428 3.48999 40.8836 7.01096 42.9368 8.25227V59.2243C40.1107 57.7488 34.9424 55.797 27.3228 55.797C21.9735 55.7044 16.6612 56.7005 11.7087 58.7246V8.1742Z" stroke="white" stroke-width="1.8" mask="url(#path-1-inside-1_9181_5743)"/>
</svg>
