<svg width="19" height="17" viewBox="0 0 19 17" fill="none" xmlns="http://www.w3.org/2000/svg">
<path d="M8.68111 17C3.89468 17 0 13.1867 0 8.50007C0 3.81346 3.89468 0 8.68111 0C10.3455 0 11.9648 0.464362 13.3641 1.34372C13.6388 1.51693 13.7192 1.87545 13.5424 2.14512C13.3649 2.41483 12.9995 2.49278 12.7241 2.31971C11.5166 1.56007 10.1182 1.15909 8.68111 1.15909C4.54727 1.15909 1.18378 4.45244 1.18378 8.50007C1.18378 12.5476 4.54727 15.8409 8.68111 15.8409C12.8148 15.8409 16.1783 12.5476 16.1783 8.50007C16.1783 8.25811 16.1664 8.01858 16.1436 7.78299C16.1121 7.46377 16.3504 7.18095 16.6755 7.15009C17.0022 7.12068 17.2903 7.35257 17.3219 7.67096C17.3488 7.94654 17.3622 8.22323 17.3621 8.50007C17.3621 13.1867 13.4675 17 8.68111 17Z" fill="#363843"/>
<path d="M9.7164 10.2642C9.56479 10.2642 9.41306 10.2098 9.29774 10.1005L5.74256 6.75172C5.5111 6.5336 5.5111 6.18013 5.74256 5.96211C5.97402 5.7441 6.34927 5.7441 6.58073 5.96211L9.71725 8.91652L17.9881 1.12578C18.2197 0.90776 18.5949 0.90776 18.8264 1.12578C19.0579 1.3438 19.0579 1.69726 18.8264 1.91528L10.1359 10.1012C10.0245 10.2057 9.87363 10.2643 9.7164 10.2642Z" fill="#363843"/>
<path d="M8.68111 17C3.89468 17 0 13.1867 0 8.50007C0 3.81346 3.89468 0 8.68111 0C10.3455 0 11.9648 0.464362 13.3641 1.34372C13.6388 1.51693 13.7192 1.87545 13.5424 2.14512C13.3649 2.41483 12.9995 2.49278 12.7241 2.31971C11.5166 1.56007 10.1182 1.15909 8.68111 1.15909C4.54727 1.15909 1.18378 4.45244 1.18378 8.50007C1.18378 12.5476 4.54727 15.8409 8.68111 15.8409C12.8148 15.8409 16.1783 12.5476 16.1783 8.50007C16.1783 8.25811 16.1664 8.01858 16.1436 7.78299C16.1121 7.46377 16.3504 7.18095 16.6755 7.15009C17.0022 7.12068 17.2903 7.35257 17.3219 7.67096C17.3488 7.94654 17.3622 8.22323 17.3621 8.50007C17.3621 13.1867 13.4675 17 8.68111 17Z" stroke="#3D4A91" stroke-opacity="0.05"/>
<path d="M9.7164 10.2642C9.56479 10.2642 9.41306 10.2098 9.29774 10.1005L5.74256 6.75172C5.5111 6.5336 5.5111 6.18013 5.74256 5.96211C5.97402 5.7441 6.34927 5.7441 6.58073 5.96211L9.71725 8.91652L17.9881 1.12578C18.2197 0.90776 18.5949 0.90776 18.8264 1.12578C19.0579 1.3438 19.0579 1.69726 18.8264 1.91528L10.1359 10.1012C10.0245 10.2057 9.87363 10.2643 9.7164 10.2642Z" stroke="#3D4A91" stroke-opacity="0.05"/>
</svg>
