<svg width="24" height="24" viewBox="0 0 24 24" fill="#363843" xmlns="http://www.w3.org/2000/svg">
<path d="M18.7921 17.8218C19.0693 18.099 19.0693 18.5149 18.7921 18.7921C18.6535 18.9307 18.4455 19 18.3069 19C18.1683 19 17.9604 18.9307 17.8218 18.7921L12 12.9703L6.17822 18.7921C6.0396 18.9307 5.83168 19 5.69307 19C5.55446 19 5.34653 18.9307 5.20792 18.7921C4.93069 18.5149 4.93069 18.099 5.20792 17.8218L11.0297 12L5.20792 6.17822C4.93069 5.90099 4.93069 5.48515 5.20792 5.20792C5.48515 4.93069 5.90099 4.93069 6.17822 5.20792L12 11.0297L17.8218 5.20792C18.099 4.93069 18.5149 4.93069 18.7921 5.20792C19.0693 5.48515 19.0693 5.90099 18.7921 6.17822L12.9703 12L18.7921 17.8218Z" fill="#363843"/>
</svg>
