<svg width="24" height="24" viewBox="0 0 24 24" fill="none" xmlns="http://www.w3.org/2000/svg">
<path d="M12 15C11.9284 15.0001 11.8574 14.9872 11.7913 14.962C11.7251 14.9369 11.665 14.9 11.6144 14.8535L6.15985 9.85353C5.94672 9.65815 5.94672 9.34178 6.15985 9.14653C6.37299 8.95128 6.71812 8.95116 6.93112 9.14653L12 13.793L17.0689 9.14653C17.2821 8.95116 17.6272 8.95116 17.8402 9.14653C18.0532 9.3419 18.0533 9.65828 17.8402 9.85353L12.3857 14.8535C12.3351 14.9 12.275 14.9369 12.2088 14.962C12.1426 14.9872 12.0717 15.0001 12 15Z" fill="#363843"/>
</svg>
