<svg width="34" height="35" viewBox="0 0 34 35" fill="none" xmlns="http://www.w3.org/2000/svg">
<path fill-rule="evenodd" clip-rule="evenodd" d="M28.9 1.71719H5.1C2.75279 1.71719 0.85 3.61998 0.85 5.96719V29.7672C0.85 32.1144 2.75279 34.0172 5.1 34.0172H28.9C31.2472 34.0172 33.15 32.1144 33.15 29.7672V5.96719C33.15 3.61998 31.2472 1.71719 28.9 1.71719ZM5.1 0.867188C2.28335 0.867188 0 3.15053 0 5.96719V29.7672C0 32.5838 2.28335 34.8672 5.1 34.8672H28.9C31.7167 34.8672 34 32.5838 34 29.7672V5.96719C34 3.15054 31.7167 0.867188 28.9 0.867188H5.1Z" fill="#0C92BF"/>
<path d="M17 22.1172C16.8873 22.1172 16.7792 22.0724 16.6995 21.9927C16.6198 21.913 16.575 21.8049 16.575 21.6922V8.09219C16.575 7.97947 16.6198 7.87137 16.6995 7.79167C16.7792 7.71196 16.8873 7.66719 17 7.66719C17.1127 7.66719 17.2208 7.71196 17.3005 7.79167C17.3802 7.87137 17.425 7.97947 17.425 8.09219V21.6922C17.425 21.8049 17.3802 21.913 17.3005 21.9927C17.2208 22.0724 17.1127 22.1172 17 22.1172Z" fill="#0C92BF"/>
<path d="M16.9985 22.1182C16.8858 22.1182 16.7776 22.0736 16.6976 21.9941L13.2976 18.5941C13.2202 18.5139 13.1774 18.4066 13.1783 18.2951C13.1793 18.1837 13.224 18.0771 13.3028 17.9983C13.3816 17.9195 13.4882 17.8748 13.5996 17.8738C13.7111 17.8729 13.8184 17.9157 13.8986 17.9931L16.9985 21.0922L20.0976 17.9931C20.1778 17.9157 20.2851 17.8729 20.3966 17.8738C20.508 17.8748 20.6146 17.9195 20.6934 17.9983C20.7722 18.0771 20.8169 18.1837 20.8179 18.2951C20.8188 18.4066 20.776 18.5139 20.6986 18.5941L17.2986 21.9941C17.2592 22.0335 17.2124 22.0647 17.1609 22.086C17.1094 22.1073 17.0542 22.1183 16.9985 22.1182Z" fill="#0C92BF"/>
<path d="M25.075 28.0672H8.925C8.36162 28.0665 7.82151 27.8424 7.42314 27.444C7.02478 27.0457 6.80067 26.5056 6.8 25.9422V21.6922C6.8 21.5795 6.84478 21.4714 6.92448 21.3917C7.00418 21.312 7.11228 21.2672 7.225 21.2672C7.33772 21.2672 7.44582 21.312 7.52552 21.3917C7.60522 21.4714 7.65 21.5795 7.65 21.6922V25.9422C7.65 26.6451 8.22205 27.2172 8.925 27.2172H25.075C25.778 27.2172 26.35 26.6451 26.35 25.9422V21.6922C26.35 21.5795 26.3948 21.4714 26.4745 21.3917C26.5542 21.312 26.6623 21.2672 26.775 21.2672C26.8877 21.2672 26.9958 21.312 27.0755 21.3917C27.1552 21.4714 27.2 21.5795 27.2 21.6922V25.9422C27.2 27.1135 26.2472 28.0672 25.075 28.0672Z" fill="#0C92BF"/>
</svg>
