<svg width="24" height="24" viewBox="0 0 24 24" fill="none" xmlns="http://www.w3.org/2000/svg">
<g clip-path="url(#clip0_9171_5639)">
<path fill-rule="evenodd" clip-rule="evenodd" d="M19.0363 1.59713C19.0027 1.46189 18.9338 1.338 18.8365 1.23812C18.7393 1.13824 18.6172 1.06596 18.4828 1.02868C18.3485 0.991397 18.2066 0.990447 18.0717 1.02593C17.9368 1.06141 17.8138 1.13204 17.7152 1.23061L14.5662 4.37665C14.4702 4.4728 14.4007 4.59215 14.3645 4.72309C14.3284 4.85403 14.3268 4.9921 14.3599 5.12383L14.9268 7.39527C14.9193 7.40251 14.912 7.40985 14.9047 7.41729L11.14 11.1784C10.9314 11.402 10.8179 11.6978 10.8233 12.0035C10.8287 12.3091 10.9526 12.6007 11.169 12.8169C11.3853 13.033 11.6772 13.1568 11.9831 13.1622C12.2891 13.1676 12.5852 13.0542 12.809 12.8458L16.5769 9.08626C16.5843 9.07849 16.5917 9.07063 16.5989 9.06267L18.871 9.63053C19.0028 9.66362 19.141 9.66204 19.2721 9.62593C19.4031 9.58981 19.5226 9.52041 19.6188 9.42446L22.7679 6.27843C22.867 6.17999 22.938 6.05698 22.9738 5.92203C23.0095 5.78708 23.0087 5.64506 22.9714 5.51055C22.934 5.37603 22.8615 5.25387 22.7613 5.15661C22.661 5.05934 22.5367 4.99048 22.401 4.95709L19.7102 4.28699L19.0363 1.59713ZM12.4737 2.19487C12.4953 2.50691 12.392 2.81476 12.1865 3.05074C11.981 3.28672 11.6901 3.43151 11.3778 3.45329C9.73271 3.56718 8.15495 4.1505 6.83197 5.13392C5.50899 6.11734 4.49641 7.45953 3.91455 9.001C3.33268 10.5425 3.206 12.2184 3.54955 13.8297C3.89309 15.441 4.69243 16.9199 5.85257 18.0906C7.01272 19.2614 8.4849 20.0748 10.0942 20.4342C11.7035 20.7937 13.3822 20.684 14.931 20.1182C16.4797 19.5525 17.8333 18.5544 18.8309 17.2427C19.8286 15.9309 20.4283 14.3606 20.5588 12.7184C20.5837 12.4063 20.7316 12.1169 20.97 11.9138C21.2085 11.7107 21.5179 11.6105 21.8303 11.6353C22.1426 11.6602 22.4323 11.8079 22.6356 12.0461C22.8389 12.2844 22.9392 12.5935 22.9143 12.9056C22.7477 14.998 21.9833 16.9987 20.7121 18.6699C19.4408 20.3412 17.716 21.6127 15.7427 22.3334C13.7693 23.0542 11.6304 23.1938 9.57991 22.7358C7.52945 22.2778 5.65369 21.2414 4.17548 19.7497C2.69727 18.258 1.67875 16.3737 1.24092 14.3207C0.803092 12.2678 0.964364 10.1324 1.70558 8.16824C2.44679 6.20413 3.73678 4.49387 5.4223 3.24064C7.10781 1.98742 9.118 1.24392 11.214 1.09848C11.5264 1.07687 11.8345 1.18006 12.0707 1.38536C12.3069 1.59066 12.4519 1.88284 12.4737 2.19487ZM11.4156 7.38426C11.4721 7.52855 11.4997 7.68256 11.4967 7.83749C11.4937 7.99243 11.4602 8.14525 11.398 8.28724C11.3359 8.42922 11.2464 8.55759 11.1345 8.665C11.0227 8.77241 10.8908 8.85676 10.7464 8.91323C10.23 9.11559 9.77226 9.44332 9.41449 9.86679C9.05672 10.2903 8.81022 10.7961 8.69727 11.3387C8.58432 11.8812 8.60848 12.4433 8.76757 12.9742C8.92666 13.5051 9.21566 13.988 9.60845 14.3792C10.0012 14.7705 10.4854 15.0578 11.0173 15.2152C11.5491 15.3726 12.1118 15.3951 12.6546 15.2807C13.1973 15.1662 13.7029 14.9185 14.1258 14.5599C14.5486 14.2012 14.8753 13.7429 15.0763 13.2264C15.1326 13.0821 15.2167 12.9501 15.324 12.8382C15.4313 12.7263 15.5596 12.6366 15.7015 12.5743C15.8435 12.5119 15.9964 12.4781 16.1514 12.4747C16.3065 12.4714 16.4607 12.4986 16.6052 12.5548C16.7497 12.611 16.8818 12.695 16.9938 12.8022C17.1058 12.9094 17.1956 13.0375 17.258 13.1794C17.3204 13.3212 17.3543 13.4739 17.3576 13.6288C17.361 13.7837 17.3338 13.9378 17.2775 14.0822C16.9341 14.9641 16.3761 15.7467 15.654 16.3591C14.9318 16.9715 14.0682 17.3944 13.1414 17.5897C12.2145 17.7849 11.2535 17.7463 10.3454 17.4773C9.4372 17.2083 8.61044 16.7174 7.93985 16.049C7.26926 15.3807 6.77599 14.5559 6.50461 13.6492C6.23323 12.7425 6.19232 11.7826 6.38557 10.8561C6.57881 9.9297 7.00013 9.06599 7.61142 8.34308C8.22271 7.62017 9.0047 7.06087 9.8867 6.71573C10.1782 6.60205 10.5029 6.60861 10.7896 6.73396C11.0763 6.85931 11.3014 7.0932 11.4156 7.38426Z" stroke="#363843"/>
</g>
<defs>
<clipPath id="clip0_9171_5639">
<rect width="24" height="24" fill="white"/>
</clipPath>
</defs>
</svg>
