<svg width="24" height="24" viewBox="0 0 24 24" fill="none" xmlns="http://www.w3.org/2000/svg">
<path d="M19.6069 12.2485H19.6142L8.96608 23.401C8.96602 23.4011 8.96596 23.4012 8.9659 23.4012C8.91961 23.4494 8.85691 23.4832 8.78648 23.4952C8.71588 23.5072 8.64357 23.4963 8.58096 23.4651C8.5185 23.4338 8.47037 23.3848 8.44175 23.3273C8.41338 23.2703 8.40498 23.2068 8.41693 23.1458C8.41699 23.1455 8.41706 23.1452 8.41712 23.1449L9.91611 15.8152L10.0023 15.3939L9.59855 15.2457L3.70389 13.0819L3.7033 13.0817C3.65285 13.0633 3.60905 13.0333 3.57522 12.9956C3.54144 12.9579 3.51858 12.9137 3.50758 12.8671C3.49659 12.8206 3.49755 12.7722 3.51044 12.726C3.52334 12.6798 3.54805 12.6362 3.58349 12.5998L3.5835 12.5998L3.58638 12.5968L15.0416 0.598956C15.0416 0.598901 15.0417 0.598847 15.0417 0.598792C15.088 0.550563 15.1507 0.516788 15.2212 0.504781C15.2918 0.492749 15.3641 0.503649 15.4267 0.534945C15.4892 0.566164 15.5373 0.615232 15.5659 0.672722C15.5943 0.729725 15.6027 0.793194 15.5907 0.854216C15.5907 0.854525 15.5906 0.854834 15.5905 0.855142L14.0875 8.19262L14.0011 8.61428L14.4052 8.76242L20.2981 10.9225C20.2984 10.9226 20.2986 10.9227 20.2989 10.9228C20.3486 10.9414 20.3918 10.9712 20.4252 11.0085L20.798 10.6754L20.4252 11.0085C20.4587 11.046 20.4814 11.09 20.4924 11.1364C20.5033 11.1826 20.5025 11.2307 20.4898 11.2767C20.4772 11.3227 20.4528 11.3661 20.4179 11.4025L19.6069 12.2485Z" stroke="#363843"/>
</svg>
