<svg width="24" height="24" viewBox="0 0 24 24" fill="none" xmlns="http://www.w3.org/2000/svg">
<path d="M12.158 23.4734C12.0554 23.5076 11.9446 23.5076 11.842 23.4734L11.842 23.4734C8.71407 22.4317 6.38783 20.8557 4.84153 18.7899C3.29671 16.7261 2.5 14.1331 2.5 11.0018V4.99979C2.5 4.86718 2.55268 4.74 2.64645 4.64623C2.74022 4.55247 2.86739 4.49979 3 4.49979C6.21173 4.49979 9.0821 3.20867 11.6473 0.647626L11.648 0.646894C11.6944 0.60033 11.7496 0.563387 11.8104 0.538181C11.8711 0.512975 11.9362 0.5 12.002 0.5C12.0678 0.5 12.1329 0.512975 12.1936 0.538181C12.2544 0.563386 12.3096 0.600329 12.356 0.646894L12.356 0.646913C14.9159 3.213 17.7867 4.49979 21 4.49979C21.1326 4.49979 21.2598 4.55247 21.3536 4.64623C21.4473 4.74 21.5 4.86718 21.5 4.99979V11.0018C21.5 14.133 20.7028 16.726 19.1577 18.7899C17.6112 20.8557 15.2849 22.4317 12.158 23.4734ZM12.158 23.4734L12.316 23.9478M12.158 23.4734C12.158 23.4734 12.158 23.4734 12.158 23.4734L12.316 23.9478M12.316 23.9478C12.1109 24.0161 11.8891 24.0161 11.684 23.9478L11.294 0.293787C11.3869 0.200661 11.4972 0.126775 11.6187 0.0763621C11.7402 0.0259492 11.8705 0 12.002 0C12.1335 0 12.2638 0.0259492 12.3853 0.0763621C12.5068 0.126775 12.6171 0.200661 12.71 0.293787C15.19 2.77979 17.938 3.99979 21 3.99979C21.2652 3.99979 21.5196 4.10514 21.7071 4.29268C21.8946 4.48022 22 4.73457 22 4.99979V11.0018C22 17.4398 18.716 21.8158 12.316 23.9478ZM18.0616 10.0613L18.0616 10.0613L12.062 16.0609L18.0616 10.0613ZM18.0616 10.0613C18.3428 9.77999 18.5008 9.39853 18.5008 9.00079C18.5008 8.60304 18.3428 8.22158 18.0616 7.94029C17.9224 7.80078 17.757 7.69009 17.5749 7.61454L17.3833 8.07636L17.5749 7.61454C17.3927 7.53892 17.1973 7.5 17 7.5C16.8027 7.5 16.6073 7.53892 16.4251 7.61454L16.6167 8.07636M18.0616 10.0613L16.6167 8.07636M9.06155 10.9382L9.06171 10.9384L11.0002 12.8785L15.938 7.94068L9.06155 10.9382ZM9.06155 10.9382C8.78001 10.6567 8.39816 10.4985 8 10.4985C7.60184 10.4985 7.21999 10.6567 6.93845 10.9382C6.65691 11.2198 6.49874 11.6016 6.49874 11.9998C6.49874 12.3979 6.6569 12.7798 6.93845 13.0613L9.938 16.0609C9.93807 16.061 9.93814 16.061 9.93821 16.0611C10.0775 16.2007 10.243 16.3114 10.4251 16.387C10.6073 16.4627 10.8027 16.5016 11 16.5016C11.1973 16.5016 11.3927 16.4627 11.5749 16.387C11.7569 16.3115 11.9223 16.2008 12.0616 16.0613L9.06155 10.9382ZM16.6167 8.07636L16.4251 7.61454C16.2431 7.69008 16.0777 7.80075 15.9384 7.94023L16.6167 8.07636Z" stroke="#363843"/>
</svg>
