<svg width="24" height="24" viewBox="0 0 24 24" fill="none" xmlns="http://www.w3.org/2000/svg">
<path fill-rule="evenodd" clip-rule="evenodd" d="M14.9361 17.4994L16.343 18.8592C16.4363 18.9494 16.5628 19 16.6947 19C16.8267 19 16.9532 18.9494 17.0465 18.8592L19.8603 16.1396C19.951 16.0489 20.0011 15.9274 20 15.8013C19.9988 15.6753 19.9465 15.5547 19.8543 15.4655C19.762 15.3764 19.6373 15.3258 19.5068 15.3247C19.3764 15.3236 19.2507 15.3721 19.1569 15.4597L16.6947 17.8393L15.6395 16.8195C15.5457 16.7319 15.42 16.6834 15.2896 16.6845C15.1592 16.6856 15.0344 16.7362 14.9421 16.8253C14.8499 16.9145 14.7976 17.0351 14.7964 17.1612C14.7953 17.2872 14.8455 17.4087 14.9361 17.4994ZM4.4975 9.96169H14.4475C14.5795 9.96169 14.706 9.91103 14.7993 9.82085C14.8926 9.73068 14.945 9.60837 14.945 9.48084C14.945 9.35332 14.8926 9.23101 14.7993 9.14084C14.706 9.05066 14.5795 9 14.4475 9H4.4975C4.36556 9 4.23901 9.05066 4.14571 9.14084C4.05242 9.23101 4 9.35332 4 9.48084C4 9.60837 4.05242 9.73068 4.14571 9.82085C4.23901 9.91103 4.36556 9.96169 4.4975 9.96169ZM4.4975 12.8467H11.4625C11.5945 12.8467 11.721 12.7961 11.8143 12.7059C11.9076 12.6157 11.96 12.4934 11.96 12.3659C11.96 12.2384 11.9076 12.1161 11.8143 12.0259C11.721 11.9357 11.5945 11.8851 11.4625 11.8851H4.4975C4.36556 11.8851 4.23901 11.9357 4.14571 12.0259C4.05242 12.1161 4 12.2384 4 12.3659C4 12.4934 4.05242 12.6157 4.14571 12.7059C4.23901 12.7961 4.36556 12.8467 4.4975 12.8467ZM4.4975 15.7318H10.4675C10.5995 15.7318 10.726 15.6811 10.8193 15.591C10.9126 15.5008 10.965 15.3785 10.965 15.251C10.965 15.1234 10.9126 15.0011 10.8193 14.911C10.726 14.8208 10.5995 14.7701 10.4675 14.7701H4.4975C4.36556 14.7701 4.23901 14.8208 4.14571 14.911C4.05242 15.0011 4 15.1234 4 15.251C4 15.3785 4.05242 15.5008 4.14571 15.591C4.23901 15.6811 4.36556 15.7318 4.4975 15.7318ZM4.4975 18.6169H10.4675C10.5995 18.6169 10.726 18.5662 10.8193 18.476C10.9126 18.3859 10.965 18.2636 10.965 18.136C10.965 18.0085 10.9126 17.8862 10.8193 17.796C10.726 17.7058 10.5995 17.6552 10.4675 17.6552H4.4975C4.36556 17.6552 4.23901 17.7058 4.14571 17.796C4.05242 17.8862 4 18.0085 4 18.136C4 18.2636 4.05242 18.3859 4.14571 18.476C4.23901 18.5662 4.36556 18.6169 4.4975 18.6169Z" fill="#363843"/>
<path fill-rule="evenodd" clip-rule="evenodd" d="M17.5 23H2.5C1.83696 22.9999 1.20106 22.7366 0.732 22.268C0.263374 21.7989 9.59269e-05 21.163 0 20.5V6.3285C0 5.6655 0.2635 5.0295 0.732 4.5605L4.5605 0.732C5.02956 0.263374 5.66545 9.59269e-05 6.3285 0H16.5C17.163 0 17.799 0.2635 18.268 0.732C18.7366 1.20106 18.9999 1.83696 19 2.5V12.2075C21.3075 12.861 23 14.9845 23 17.5C23 20.5355 20.5355 23 17.5 23ZM18 12.0225V2.5C18 2.102 17.842 1.7205 17.5605 1.4395C17.4213 1.30011 17.256 1.18955 17.074 1.11413C16.892 1.03872 16.697 0.999933 16.5 1H6.3285C6.21799 1.00003 6.10782 1.01227 6 1.0365V3.5C5.9999 4.16304 5.73663 4.79894 5.268 5.268C4.79894 5.73663 4.16304 5.9999 3.5 6H1.0365C1.01227 6.10782 1.00003 6.21799 1 6.3285V20.5C1 20.898 1.158 21.2795 1.4395 21.5605C1.57869 21.6999 1.744 21.8105 1.92598 21.8859C2.10795 21.9613 2.30302 22.0001 2.5 22H14.3385C13.6159 21.4929 13.0261 20.8192 12.6191 20.0359C12.212 19.2526 11.9997 18.3828 12 17.5C12 14.4645 14.4645 12 17.5 12C17.6685 12 17.835 12.0075 18 12.0225ZM17.5 13C19.9835 13 22 15.0165 22 17.5C22 19.9835 19.9835 22 17.5 22C15.0165 22 13 19.9835 13 17.5C13 15.0165 15.0165 13 17.5 13ZM5 1.707L1.707 5H3.5C3.898 5 4.2795 4.842 4.5605 4.5605C4.69989 4.42131 4.81045 4.256 4.88587 4.07402C4.96128 3.89205 5.00007 3.69698 5 3.5V1.707Z" fill="#363843"/>
</svg>
