<svg width="100" height="28" viewBox="0 0 100 28" fill="none" xmlns="http://www.w3.org/2000/svg">
<path d="M74 2.43411C74 1.36622 74.8602 0.500002 75.9213 0.500002H98.0786C99.1398 0.500002 100 1.36622 100 2.43411V25.5659C100 26.6341 99.1398 27.5 98.0786 27.5H75.9213C74.8602 27.5 74 26.6341 74 25.5659V2.43411Z" fill="#0C92BF"/>
<path fill-rule="evenodd" clip-rule="evenodd" d="M0 22.9766H10.9842V19.3238H3.97505V5.38745H0V22.9766Z" fill="white"/>
<path fill-rule="evenodd" clip-rule="evenodd" d="M16.5464 22.9766V10.8618H12.571V22.9766H16.5464ZM14.5587 9.20764C15.945 9.20764 16.8079 8.27733 16.8079 7.11399C16.782 5.92557 15.945 5.02143 14.5851 5.02143C13.2251 5.02143 12.3359 5.92557 12.3359 7.11399C12.3359 8.27733 13.1986 9.20764 14.5327 9.20764H14.5587Z" fill="white"/>
<path fill-rule="evenodd" clip-rule="evenodd" d="M18.3906 22.9766H22.3661V16.2109C22.3661 15.8489 22.3919 15.4871 22.4971 15.2283C22.7843 14.5052 23.4383 13.7559 24.5366 13.7559C25.9753 13.7559 26.5507 14.8673 26.5507 16.4949V22.9766H30.5258V16.0299C30.5258 12.3087 28.5644 10.5771 25.9488 10.5771C23.8044 10.5771 22.8627 11.7913 22.3396 12.6184H22.3661V10.8618H18.3907C18.4429 11.9986 18.3906 22.9766 18.3906 22.9766Z" fill="white"/>
<path fill-rule="evenodd" clip-rule="evenodd" d="M36.1318 5.38745H32.1562V22.9766H36.1318V19.0488L37.1254 17.7819L40.2377 22.9766H45.1282L39.8978 15.4563L44.4746 10.3398H39.6887C39.6887 10.3398 36.4196 14.9175 36.1318 15.4602V5.38745Z" fill="white"/>
<path fill-rule="evenodd" clip-rule="evenodd" d="M55.765 17.9209C55.8172 17.6097 55.8958 17.0128 55.8958 16.3381C55.8958 13.2062 54.3263 10.0271 50.1943 10.0271C45.7742 10.0271 43.7344 13.568 43.7344 16.7794C43.7344 20.7516 46.2189 23.2324 50.5603 23.2324C52.2866 23.2324 53.8817 22.9743 55.1895 22.4315L54.6662 19.7722C53.5941 20.1325 52.4957 20.3124 51.1358 20.3124C49.2789 20.3124 47.6576 19.5406 47.5266 17.8951L55.765 17.9202V17.9209ZM47.5007 15.1966C47.6052 14.1627 48.2853 12.6377 49.9852 12.6377C51.7894 12.6377 52.2081 14.2663 52.2081 15.1966H47.5007Z" fill="white"/>
<path fill-rule="evenodd" clip-rule="evenodd" d="M65.7009 5.38832V11.4771H65.6487C65.0732 10.6249 63.8699 10.0564 62.275 10.0564C59.2148 10.0564 56.5212 12.5372 56.5471 16.775C56.5471 20.7035 58.9794 23.2617 62.0132 23.2617C63.6608 23.2617 65.2299 22.5379 66.0145 21.1423H66.0931L66.25 22.9774H69.781C69.7286 22.1246 69.6759 20.6515 69.6759 19.2046V5.38832H65.7009ZM65.7009 17.3698C65.7009 17.6795 65.6747 17.99 65.6222 18.2481C65.3872 19.3594 64.4453 20.1345 63.2949 20.1345C61.6472 20.1345 60.5748 18.7909 60.5748 16.6718C60.5748 14.6821 61.4904 13.0799 63.3209 13.0799C64.5499 13.0799 65.4131 13.9325 65.6487 14.9918C65.7009 15.2249 65.7009 15.4833 65.7009 15.7156V17.3698Z" fill="white"/>
<path fill-rule="evenodd" clip-rule="evenodd" d="M81.6558 22.9648V10.8497H77.6803V22.9648H81.6558ZM79.668 9.19556C81.0543 9.19556 81.9172 8.26525 81.9172 7.10263C81.8914 5.91384 81.0543 5.00935 79.6943 5.00935C78.3344 5.00935 77.4453 5.91384 77.4453 7.10263C77.4453 8.26525 78.308 9.19556 79.6421 9.19556H79.668Z" fill="white"/>
<path fill-rule="evenodd" clip-rule="evenodd" d="M83.8594 22.9648H87.8348V16.1992C87.8348 15.8371 87.8606 15.4754 87.9656 15.2166C88.253 14.4931 88.9071 13.7439 90.0053 13.7439C91.4438 13.7439 92.0193 14.8548 92.0193 16.4835V22.9648H95.9944V16.0182C95.9944 12.2969 94.0331 10.5654 91.4176 10.5654C89.2729 10.5654 88.3314 11.7796 87.8083 12.6067H87.8349V10.8497H83.8595C83.9117 11.9865 83.8594 22.9648 83.8594 22.9648Z" fill="white"/>
</svg>
