<svg width="109" height="51" viewBox="0 0 110 51" fill="#363843" xmlns="http://www.w3.org/2000/svg">
<g clip-path="url(#clip0_9531_5514)">
<path fill-rule="evenodd" clip-rule="evenodd" d="M53.7067 47.4858C54.4891 47.4858 55.1234 46.8485 55.1234 46.0624C55.1234 45.2762 54.4891 44.6389 53.7067 44.6389C52.9243 44.6389 52.29 45.2762 52.29 46.0624C52.29 46.8485 52.9243 47.4858 53.7067 47.4858ZM53.7067 48.8439C55.2356 48.8439 56.4751 47.5986 56.4751 46.0624C56.4751 44.5261 55.2356 43.2808 53.7067 43.2808C52.1778 43.2808 50.9383 44.5261 50.9383 46.0624C50.9383 47.5986 52.1778 48.8439 53.7067 48.8439Z" fill="#363843"/>
<path d="M54.5174 12.1648C53.5907 12.1648 52.8131 12.0244 52.1846 11.7435C51.5562 11.4519 51.0715 11.0793 50.7306 10.6257C50.4004 10.1612 50.2247 9.66981 50.2034 9.15138C50.2034 9.06497 50.2353 8.98937 50.2992 8.92456C50.3738 8.84896 50.459 8.81115 50.5549 8.81115H51.3698C51.4976 8.81115 51.5935 8.84356 51.6574 8.90836C51.7213 8.97316 51.7639 9.04877 51.7852 9.13517C51.8384 9.39439 51.9663 9.65361 52.1687 9.91283C52.3817 10.1612 52.6746 10.3719 53.0474 10.5447C53.4309 10.7067 53.9209 10.7877 54.5174 10.7877C55.4335 10.7877 56.1045 10.6257 56.5306 10.3017C56.9674 9.96683 57.1857 9.524 57.1857 8.97316C57.1857 8.59514 57.0685 8.29272 56.8342 8.0659C56.6105 7.82829 56.2643 7.61767 55.7956 7.43406C55.327 7.25045 54.7198 7.05064 53.9742 6.83462C53.1966 6.60781 52.5521 6.35939 52.0408 6.08937C51.5295 5.81935 51.1461 5.48453 50.8904 5.08491C50.6454 4.68528 50.5229 4.17764 50.5229 3.562C50.5229 2.97876 50.6774 2.46033 50.9863 2.0067C51.2952 1.54227 51.7373 1.17504 52.3125 0.905027C52.8983 0.635009 53.6067 0.5 54.4375 0.5C55.0979 0.5 55.6731 0.591806 56.1631 0.775419C56.6638 0.94823 57.0792 1.18585 57.4094 1.48827C57.7396 1.77989 57.9899 2.09851 58.1604 2.44413C58.3308 2.77895 58.4213 3.10837 58.432 3.43239C58.432 3.508 58.4054 3.58361 58.3521 3.65921C58.2988 3.72401 58.2136 3.75642 58.0965 3.75642H57.2496C57.1751 3.75642 57.0952 3.73482 57.01 3.69161C56.9354 3.64841 56.8768 3.5674 56.8342 3.4486C56.7703 3.00577 56.5253 2.63314 56.0992 2.33072C55.6731 2.0283 55.1192 1.87709 54.4375 1.87709C53.7451 1.87709 53.1806 2.0121 52.7439 2.28212C52.3178 2.55214 52.1047 2.97336 52.1047 3.5458C52.1047 3.91303 52.2059 4.22085 52.4083 4.46926C52.6107 4.70688 52.9303 4.91749 53.367 5.10111C53.8037 5.28472 54.3736 5.47913 55.0766 5.68434C55.9288 5.92196 56.6265 6.17578 57.1697 6.4458C57.713 6.70501 58.1124 7.03444 58.3681 7.43406C58.6344 7.82289 58.7675 8.32512 58.7675 8.94076C58.7675 9.62121 58.5918 10.2044 58.2403 10.6905C57.8887 11.1657 57.3934 11.5329 56.7543 11.7922C56.1259 12.0406 55.3802 12.1648 54.5174 12.1648Z" fill="#363843"/>
<path d="M63.3411 12.0028C63.2345 12.0028 63.144 11.9704 63.0694 11.9056C63.0055 11.83 62.9736 11.7381 62.9736 11.6301V1.05084C62.9736 0.932029 63.0055 0.840223 63.0694 0.775419C63.144 0.699813 63.2345 0.662011 63.3411 0.662011H64.1399C64.2678 0.662011 64.3636 0.694413 64.4275 0.759218C64.4915 0.824022 64.5287 0.878025 64.5394 0.921228L67.9267 7.46646L71.33 0.921228C71.3513 0.878025 71.3886 0.824022 71.4418 0.759218C71.5058 0.694413 71.6016 0.662011 71.7295 0.662011H72.5124C72.6295 0.662011 72.7201 0.699813 72.784 0.775419C72.8586 0.840223 72.8958 0.932029 72.8958 1.05084V11.6301C72.8958 11.7381 72.8586 11.83 72.784 11.9056C72.7201 11.9704 72.6295 12.0028 72.5124 12.0028H71.7295C71.6229 12.0028 71.5324 11.9704 71.4578 11.9056C71.3939 11.83 71.362 11.7381 71.362 11.6301V3.65921L68.6936 8.94076C68.651 9.04877 68.5871 9.13517 68.5019 9.19998C68.4167 9.25398 68.3102 9.28098 68.1824 9.28098H67.687C67.5486 9.28098 67.4367 9.25398 67.3515 9.19998C67.2769 9.13517 67.213 9.04877 67.1598 8.94076L64.4915 3.65921V11.6301C64.4915 11.7381 64.4542 11.83 64.3796 11.9056C64.3157 11.9704 64.2305 12.0028 64.124 12.0028H63.3411Z" fill="#363843"/>
<path d="M75.6716 12.0028C75.5864 12.0028 75.5118 11.9704 75.4479 11.9056C75.384 11.8408 75.352 11.7652 75.352 11.6787C75.352 11.6247 75.3574 11.5653 75.368 11.5005L79.3305 1.01843C79.3732 0.910427 79.4317 0.824022 79.5063 0.759218C79.5809 0.694413 79.6927 0.662011 79.8418 0.662011H80.9283C81.0668 0.662011 81.1733 0.694413 81.2479 0.759218C81.3331 0.824022 81.397 0.910427 81.4396 1.01843L85.3862 11.5005C85.4075 11.5653 85.4181 11.6247 85.4181 11.6787C85.4181 11.7652 85.3862 11.8408 85.3223 11.9056C85.2583 11.9704 85.1838 12.0028 85.0986 12.0028H84.2837C84.1559 12.0028 84.06 11.9704 83.9961 11.9056C83.9428 11.8408 83.9055 11.7814 83.8842 11.7273L83.0055 9.42679H77.7647L76.8859 11.7273C76.8753 11.7814 76.838 11.8408 76.7741 11.9056C76.7102 11.9704 76.6143 12.0028 76.4865 12.0028H75.6716ZM78.2281 8.0335H82.5421L80.3851 2.28212L78.2281 8.0335Z" fill="#363843"/>
<path d="M89.9962 12.0028C89.879 12.0028 89.7885 11.9704 89.7245 11.9056C89.6606 11.83 89.6287 11.7381 89.6287 11.6301V1.05084C89.6287 0.932029 89.6606 0.840223 89.7245 0.775419C89.7885 0.699813 89.879 0.662011 89.9962 0.662011H93.8948C95.0985 0.662011 96.0518 0.94823 96.7548 1.52067C97.4579 2.09311 97.8094 2.94096 97.8094 4.06424C97.8094 4.89589 97.6017 5.57634 97.1862 6.10557C96.7815 6.62401 96.2276 6.98583 95.5245 7.19105L97.9851 11.5005C98.0171 11.5653 98.0331 11.6247 98.0331 11.6787C98.0331 11.7652 97.9958 11.8408 97.9212 11.9056C97.8573 11.9704 97.7827 12.0028 97.6975 12.0028H96.9306C96.7495 12.0028 96.6164 11.9542 96.5312 11.857C96.4459 11.7597 96.3714 11.6625 96.3075 11.5653L93.9907 7.45026H91.1945V11.6301C91.1945 11.7381 91.1572 11.83 91.0827 11.9056C91.0188 11.9704 90.9282 12.0028 90.811 12.0028H89.9962ZM91.1945 6.07317H93.8309C94.6298 6.07317 95.2263 5.90576 95.6204 5.57094C96.0145 5.22531 96.2116 4.71768 96.2116 4.04804C96.2116 3.38919 96.0145 2.88696 95.6204 2.54134C95.2369 2.19571 94.6404 2.0229 93.8309 2.0229H91.1945V6.07317Z" fill="#363843"/>
<path d="M104.761 12.0028C104.654 12.0028 104.564 11.9704 104.489 11.9056C104.425 11.83 104.394 11.7381 104.394 11.6301V2.10391H101.326C101.219 2.10391 101.129 2.0715 101.054 2.0067C100.99 1.9311 100.958 1.83929 100.958 1.73128V1.05084C100.958 0.932029 100.99 0.840223 101.054 0.775419C101.129 0.699813 101.219 0.662011 101.326 0.662011H109.027C109.144 0.662011 109.235 0.699813 109.299 0.775419C109.373 0.840223 109.411 0.932029 109.411 1.05084V1.73128C109.411 1.83929 109.373 1.9311 109.299 2.0067C109.235 2.0715 109.144 2.10391 109.027 2.10391H105.975V11.6301C105.975 11.7381 105.938 11.83 105.863 11.9056C105.8 11.9704 105.709 12.0028 105.592 12.0028H104.761Z" fill="#363843"/>
<path d="M51.3563 30.6665C51.2355 30.6665 51.1421 30.6341 51.0762 30.5693C51.0103 30.4937 50.9774 30.4019 50.9774 30.2939V19.7146C50.9774 19.5958 51.0103 19.504 51.0762 19.4392C51.1421 19.3636 51.2355 19.3258 51.3563 19.3258H55.3755C56.6164 19.3258 57.5993 19.612 58.3241 20.1844C59.0489 20.7569 59.4113 21.6047 59.4113 22.728C59.4113 23.5597 59.1971 24.2401 58.7688 24.7693C58.3515 25.2878 57.7805 25.6496 57.0557 25.8548L59.5925 30.1643C59.6254 30.2291 59.6419 30.2885 59.6419 30.3425C59.6419 30.4289 59.6034 30.5045 59.5266 30.5693C59.4607 30.6341 59.3838 30.6665 59.296 30.6665H58.5053C58.3186 30.6665 58.1813 30.6179 58.0935 30.5207C58.0056 30.4235 57.9287 30.3263 57.8629 30.2291L55.4744 26.114H52.5917V30.2939C52.5917 30.4019 52.5533 30.4937 52.4764 30.5693C52.4105 30.6341 52.3172 30.6665 52.1964 30.6665H51.3563ZM52.5917 24.7369H55.3096C56.1333 24.7369 56.7482 24.5695 57.1545 24.2347C57.5609 23.8891 57.764 23.3814 57.764 22.7118C57.764 22.053 57.5609 21.5507 57.1545 21.2051C56.7592 20.8595 56.1442 20.6867 55.3096 20.6867H52.5917V24.7369Z" fill="#363843"/>
<path d="M63.3031 30.6665C63.2152 30.6665 63.1384 30.6341 63.0725 30.5693C63.0066 30.5045 62.9736 30.4289 62.9736 30.3425C62.9736 30.2885 62.9791 30.2291 62.9901 30.1643L67.0753 19.6822C67.1192 19.5742 67.1796 19.4878 67.2565 19.423C67.3333 19.3582 67.4486 19.3258 67.6024 19.3258H68.7225C68.8652 19.3258 68.9751 19.3582 69.0519 19.423C69.1398 19.4878 69.2057 19.5742 69.2496 19.6822L73.3183 30.1643C73.3402 30.2291 73.3512 30.2885 73.3512 30.3425C73.3512 30.4289 73.3183 30.5045 73.2524 30.5693C73.1865 30.6341 73.1096 30.6665 73.0218 30.6665H72.1817C72.0499 30.6665 71.9511 30.6341 71.8852 30.5693C71.8303 30.5045 71.7918 30.4451 71.7699 30.3911L70.8639 28.0906H65.461L64.555 30.3911C64.544 30.4451 64.5056 30.5045 64.4397 30.5693C64.3738 30.6341 64.275 30.6665 64.1432 30.6665H63.3031ZM65.9387 26.6973H70.3862L68.1624 20.9459L65.9387 26.6973Z" fill="#363843"/>
<path d="M76.5097 30.6665C76.3889 30.6665 76.2955 30.6341 76.2296 30.5693C76.1637 30.4937 76.1308 30.4019 76.1308 30.2939V19.7146C76.1308 19.5958 76.1637 19.504 76.2296 19.4392C76.2955 19.3636 76.3889 19.3258 76.5097 19.3258H80.2489C81.38 19.3258 82.2915 19.4932 82.9833 19.828C83.6751 20.1628 84.1803 20.6597 84.4988 21.3185C84.8172 21.9666 84.9819 22.7658 84.9929 23.7163C85.0039 24.2023 85.0094 24.6289 85.0094 24.9962C85.0094 25.3634 85.0039 25.7846 84.9929 26.2598C84.971 27.2535 84.8008 28.0798 84.4823 28.7386C84.1748 29.3866 83.6806 29.8727 82.9998 30.1967C82.3299 30.5099 81.4404 30.6665 80.3313 30.6665H76.5097ZM77.7451 29.2894H80.2489C81.0066 29.2894 81.6106 29.1868 82.0609 28.9816C82.5111 28.7764 82.8351 28.447 83.0327 27.9934C83.2414 27.5397 83.3512 26.9403 83.3622 26.195C83.3841 25.871 83.3951 25.5902 83.3951 25.3526C83.3951 25.1042 83.3951 24.8611 83.3951 24.6235C83.3951 24.3751 83.3841 24.0943 83.3622 23.7811C83.3402 22.7334 83.0876 21.9612 82.6044 21.4643C82.1213 20.9567 81.3086 20.7029 80.1665 20.7029H77.7451V29.2894Z" fill="#363843"/>
<path d="M92.6226 30.6665C92.5018 30.6665 92.4085 30.6341 92.3426 30.5693C92.2767 30.4937 92.2438 30.4019 92.2438 30.2939V19.6984C92.2438 19.5904 92.2767 19.504 92.3426 19.4392C92.4085 19.3636 92.5018 19.3258 92.6226 19.3258H93.4957C93.6055 19.3258 93.6933 19.3636 93.7592 19.4392C93.8361 19.504 93.8745 19.5904 93.8745 19.6984V30.2939C93.8745 30.4019 93.8361 30.4937 93.7592 30.5693C93.6933 30.6341 93.6055 30.6665 93.4957 30.6665H92.6226Z" fill="#363843"/>
<path d="M105.185 30.8285C104.252 30.8285 103.45 30.6719 102.78 30.3587C102.111 30.0347 101.594 29.5433 101.232 28.8844C100.87 28.2148 100.666 27.3777 100.623 26.3732C100.612 25.898 100.606 25.4444 100.606 25.0124C100.606 24.5695 100.612 24.1105 100.623 23.6353C100.666 22.6416 100.875 21.8153 101.248 21.1565C101.633 20.4869 102.16 19.99 102.83 19.666C103.511 19.3312 104.296 19.1638 105.185 19.1638C106.086 19.1638 106.871 19.3312 107.541 19.666C108.222 19.99 108.754 20.4869 109.139 21.1565C109.523 21.8153 109.732 22.6416 109.765 23.6353C109.787 24.1105 109.798 24.5695 109.798 25.0124C109.798 25.4444 109.787 25.898 109.765 26.3732C109.732 27.3777 109.529 28.2148 109.155 28.8844C108.793 29.5433 108.277 30.0347 107.607 30.3587C106.937 30.6719 106.13 30.8285 105.185 30.8285ZM105.185 29.4515C106.031 29.4515 106.717 29.203 107.244 28.7062C107.783 28.2094 108.074 27.4047 108.117 26.2922C108.139 25.8062 108.15 25.3742 108.15 24.9962C108.15 24.6073 108.139 24.1753 108.117 23.7001C108.096 22.9548 107.953 22.35 107.689 21.8855C107.437 21.4211 107.096 21.0809 106.668 20.8649C106.24 20.6489 105.745 20.5409 105.185 20.5409C104.647 20.5409 104.164 20.6489 103.736 20.8649C103.308 21.0809 102.962 21.4211 102.698 21.8855C102.445 22.35 102.303 22.9548 102.27 23.7001C102.259 24.1753 102.253 24.6073 102.253 24.9962C102.253 25.3742 102.259 25.8062 102.27 26.2922C102.314 27.4047 102.605 28.2094 103.143 28.7062C103.681 29.203 104.362 29.4515 105.185 29.4515Z" fill="#363843"/>
<path d="M96.9809 20.3576C96.9809 20.4728 96.9587 20.5618 96.9145 20.6247C96.8629 20.6875 96.8003 20.719 96.7266 20.719H89.4957C89.422 20.719 89.363 20.6875 89.3187 20.6247C89.2672 20.5618 89.2414 20.4728 89.2414 20.3576V19.525C89.2414 19.4202 89.2672 19.3365 89.3187 19.2736C89.363 19.2003 89.422 19.1636 89.4957 19.1636H96.7266C96.8003 19.1636 96.8629 19.2003 96.9145 19.2736C96.9587 19.3365 96.9809 19.4202 96.9809 19.525V20.3576Z" fill="#363843"/>
<path d="M96.9809 30.4672C96.9809 30.5824 96.9587 30.6714 96.9145 30.7342C96.8629 30.7971 96.8003 30.8285 96.7266 30.8285H89.4957C89.422 30.8285 89.363 30.7971 89.3187 30.7342C89.2672 30.6714 89.2414 30.5824 89.2414 30.4672V29.6345C89.2414 29.5298 89.2672 29.446 89.3187 29.3832C89.363 29.3099 89.422 29.2732 89.4957 29.2732H96.7266C96.8003 29.2732 96.8629 29.3099 96.9145 29.3832C96.9587 29.446 96.9809 29.5298 96.9809 29.6345V30.4672Z" fill="#363843"/>
<path d="M67.7075 48.5523C67.5894 48.5523 67.489 48.5199 67.4063 48.4551C67.3355 48.3795 67.3 48.2877 67.3 48.1796V38.6534H63.899C63.7809 38.6534 63.6805 38.621 63.5978 38.5562C63.527 38.4806 63.4915 38.3888 63.4915 38.2808V37.6003C63.4915 37.4815 63.527 37.3897 63.5978 37.3249C63.6805 37.2493 63.7809 37.2115 63.899 37.2115H72.4371C72.567 37.2115 72.6674 37.2493 72.7382 37.3249C72.8209 37.3897 72.8622 37.4815 72.8622 37.6003V38.2808C72.8622 38.3888 72.8209 38.4806 72.7382 38.5562C72.6674 38.621 72.567 38.6534 72.4371 38.6534H69.0537V48.1796C69.0537 48.2877 69.0124 48.3795 68.9297 48.4551C68.8589 48.5199 68.7585 48.5523 68.6286 48.5523H67.7075Z" fill="#363843"/>
<path d="M76.4488 48.5523C76.3189 48.5523 76.2185 48.5199 76.1477 48.4551C76.0768 48.3795 76.0414 48.2877 76.0414 48.1796V37.6003C76.0414 37.4815 76.0768 37.3897 76.1477 37.3249C76.2185 37.2493 76.3189 37.2115 76.4488 37.2115H83.7647C83.8946 37.2115 83.995 37.2493 84.0658 37.3249C84.1367 37.3897 84.1721 37.4815 84.1721 37.6003V38.216C84.1721 38.3348 84.1367 38.4266 84.0658 38.4914C83.995 38.5562 83.8946 38.5886 83.7647 38.5886H77.7419V42.1366H83.375C83.5049 42.1366 83.6053 42.1744 83.6761 42.25C83.747 42.3149 83.7824 42.4067 83.7824 42.5255V43.1249C83.7824 43.2329 83.747 43.3247 83.6761 43.4003C83.6053 43.4651 83.5049 43.4975 83.375 43.4975H77.7419V47.1752H83.9064C84.0363 47.1752 84.1367 47.2076 84.2075 47.2724C84.2784 47.3372 84.3138 47.429 84.3138 47.5478V48.1796C84.3138 48.2877 84.2784 48.3795 84.2075 48.4551C84.1367 48.5199 84.0363 48.5523 83.9064 48.5523H76.4488Z" fill="#363843"/>
<path d="M92.6107 48.7143C91.5243 48.7143 90.6208 48.5307 89.9005 48.1634C89.1919 47.7962 88.6546 47.2832 88.2885 46.6243C87.9224 45.9655 87.7217 45.1986 87.6862 44.3238C87.6744 43.881 87.6685 43.4057 87.6685 42.8981C87.6685 42.3905 87.6744 41.9044 87.6862 41.44C87.7217 40.5651 87.9224 39.7983 88.2885 39.1394C88.6546 38.4806 89.1919 37.9676 89.9005 37.6003C90.6208 37.2331 91.5243 37.0495 92.6107 37.0495C93.4256 37.0495 94.14 37.1521 94.7541 37.3573C95.3682 37.5625 95.876 37.838 96.2775 38.1836C96.6908 38.5292 97.0038 38.918 97.2163 39.3501C97.4289 39.7713 97.547 40.2087 97.5706 40.6623C97.5824 40.7595 97.547 40.8406 97.4643 40.9054C97.3935 40.9702 97.3049 41.0026 97.1986 41.0026H96.2244C96.1181 41.0026 96.0236 40.9756 95.9409 40.9216C95.8701 40.8676 95.8169 40.7704 95.7815 40.6299C95.5807 39.7875 95.2029 39.2096 94.6478 38.8964C94.1046 38.5832 93.4196 38.4266 92.593 38.4266C91.6483 38.4266 90.8984 38.675 90.3433 39.1718C89.7883 39.6579 89.4871 40.4409 89.4399 41.521C89.4045 42.4067 89.4045 43.3139 89.4399 44.2428C89.4871 45.3229 89.7883 46.1113 90.3433 46.6081C90.8984 47.0942 91.6483 47.3372 92.593 47.3372C93.4196 47.3372 94.1046 47.1806 94.6478 46.8674C95.2029 46.5541 95.5807 45.9763 95.7815 45.1338C95.8169 44.9934 95.8701 44.8962 95.9409 44.8422C96.0236 44.7882 96.1181 44.7612 96.2244 44.7612H97.1986C97.3049 44.7612 97.3935 44.7936 97.4643 44.8584C97.547 44.9232 97.5824 45.0042 97.5706 45.1014C97.547 45.5551 97.4289 45.9979 97.2163 46.4299C97.0038 46.8512 96.6908 47.2346 96.2775 47.5802C95.876 47.9258 95.3682 48.2012 94.7541 48.4065C94.14 48.6117 93.4256 48.7143 92.6107 48.7143Z" fill="#363843"/>
<path d="M100.842 48.5523C100.712 48.5523 100.612 48.5199 100.541 48.4551C100.47 48.3795 100.434 48.2877 100.434 48.1796V37.6003C100.434 37.4815 100.47 37.3897 100.541 37.3249C100.612 37.2493 100.712 37.2115 100.842 37.2115H101.745C101.875 37.2115 101.976 37.2493 102.046 37.3249C102.129 37.3897 102.17 37.4815 102.17 37.6003V42.0718H108.264V37.6003C108.264 37.4815 108.299 37.3897 108.37 37.3249C108.453 37.2493 108.553 37.2115 108.671 37.2115H109.575C109.705 37.2115 109.805 37.2493 109.876 37.3249C109.959 37.3897 110 37.4815 110 37.6003V48.1796C110 48.2877 109.959 48.3795 109.876 48.4551C109.805 48.5199 109.705 48.5523 109.575 48.5523H108.671C108.553 48.5523 108.453 48.5199 108.37 48.4551C108.299 48.3795 108.264 48.2877 108.264 48.1796V43.5299H102.17V48.1796C102.17 48.2877 102.129 48.3795 102.046 48.4551C101.976 48.5199 101.875 48.5523 101.745 48.5523H100.842Z" fill="#363843"/>
<path d="M38.0232 24.4595C38.0232 25.3785 38.7443 26.1006 39.6621 26.1006C40.5799 26.1006 41.301 25.3785 41.301 24.4595C41.301 23.6718 40.7438 23.0154 39.9899 22.8513V14.9085C40.7438 14.7444 41.301 14.088 41.301 13.3003C41.301 12.3813 40.5799 11.6592 39.6621 11.6592C39.3015 11.6592 38.9738 11.7905 38.7115 11.9874L32.0903 8.0817C32.123 7.98324 32.123 7.85196 32.123 7.72067C32.123 6.80168 31.4019 6.07961 30.4841 6.07961C30.058 6.07961 29.6646 6.24372 29.3696 6.50629L22.2895 2.33799C22.2895 2.27235 22.2895 2.2067 22.2895 2.14106C22.2895 1.22207 21.5683 0.5 20.6505 0.5C19.7327 0.5 19.0116 1.22207 19.0116 2.14106C19.0116 2.2067 19.0116 2.27235 19.0116 2.33799L2.58951 11.9874C2.32728 11.7905 1.99949 11.6592 1.63893 11.6592C0.721129 11.6592 0 12.3813 0 13.3003C0 14.2193 0.721129 14.9413 1.63893 14.9413C2.22895 14.9413 2.7534 14.6131 3.04841 14.1536L8.94856 17.7311C8.883 17.8953 8.85022 18.0922 8.85022 18.3219C8.85022 19.2409 9.57135 19.963 10.4892 19.963C10.9808 19.963 11.407 19.7332 11.702 19.405L18.2905 23.3764C18.1266 23.7374 18.0282 24.1313 18.0282 24.5251C18.0282 26.0021 19.241 27.2165 20.7161 27.2165C21.6011 27.2165 22.3878 26.7898 22.8795 26.1334L28.9763 29.8094C28.878 30.0063 28.8452 30.236 28.8452 30.4658C28.8452 31.3848 29.5663 32.1068 30.4841 32.1068C31.0086 32.1068 31.4347 31.8771 31.7625 31.4832L38.1543 35.3561C38.0887 35.5531 38.056 35.75 38.056 35.9469C38.056 36.0126 38.056 36.0782 38.056 36.1767L21.8306 45.9574C21.6011 45.7277 21.3061 45.5636 20.9783 45.4979V36.9972C21.7322 36.8331 22.2895 36.1767 22.2895 35.389C22.2895 34.47 21.5683 33.7479 20.6505 33.7479C19.7327 33.7479 19.0116 34.47 19.0116 35.389C19.0116 36.1767 19.5688 36.8331 20.3227 36.9972V45.4979C19.9949 45.5636 19.6999 45.7277 19.4705 45.9902L12.0625 41.6578C12.0953 41.5265 12.1281 41.3624 12.1281 41.2311C12.1281 40.4434 11.5708 39.787 10.8169 39.6229V32.074C11.5708 31.9099 12.1281 31.2535 12.1281 30.4658C12.1281 29.5468 11.407 28.8247 10.4892 28.8247C9.57135 28.8247 8.85022 29.5468 8.85022 30.4658C8.85022 31.2535 9.40746 31.9099 10.1614 32.074V39.5901C9.83358 39.6557 9.57135 39.8198 9.3419 40.0168L3.2123 36.4064C3.24508 36.2423 3.27786 36.0782 3.27786 35.9141C3.27786 35.1264 2.72062 34.47 1.96672 34.3059V26.0677C2.72062 25.9036 3.27786 25.2472 3.27786 24.4595C3.27786 23.5405 2.55673 22.8184 1.63893 22.8184C0.721129 22.8184 0 23.5405 0 24.4595C0 25.2472 0.557236 25.9036 1.31114 26.0677V34.3387C0.557236 34.5028 0 35.1592 0 35.9469C0 36.8659 0.721129 37.588 1.63893 37.588C2.13061 37.588 2.58951 37.3582 2.88452 36.9972L8.98134 40.5747C8.91578 40.7717 8.85022 40.9686 8.85022 41.1983C8.85022 42.1173 9.57135 42.8394 10.4892 42.8394C11.0136 42.8394 11.4725 42.6096 11.7675 42.2158L19.1099 46.5154C19.0444 46.6795 19.0116 46.8764 19.0116 47.0733C19.0116 47.9923 19.7327 48.7144 20.6505 48.7144C21.5683 48.7144 22.2895 47.9923 22.2895 47.0733C22.2895 46.8764 22.2567 46.6467 22.1911 46.4826L38.2854 36.7675C38.5804 37.227 39.1049 37.5552 39.6949 37.5552C40.6127 37.5552 41.3338 36.8331 41.3338 35.9141C41.3338 34.9951 40.6127 34.2731 39.6949 34.2731C39.236 34.2731 38.8099 34.47 38.5149 34.7654L32.0575 30.9253C32.0903 30.794 32.123 30.6299 32.123 30.4658C32.123 29.5468 31.4019 28.8247 30.4841 28.8247C30.058 28.8247 29.6319 28.9888 29.3696 29.2842L23.2073 25.5426C23.3384 25.2144 23.4039 24.8862 23.4039 24.4923C23.4039 23.0154 22.1911 21.801 20.7161 21.801C19.8966 21.801 19.1427 22.1948 18.651 22.7856L12.0297 18.8142C12.0953 18.6501 12.1281 18.486 12.1281 18.3219C12.1281 17.4029 11.407 16.6809 10.4892 16.6809C10.0303 16.6809 9.60413 16.8778 9.30912 17.1732L3.27786 13.53C3.27786 13.4644 3.27786 13.3987 3.27786 13.3003C3.27786 13.0049 3.2123 12.7095 3.04841 12.4798L19.241 2.96159C19.4705 3.35545 19.8638 3.65084 20.3227 3.7493V11.4623C19.5688 11.6264 19.0116 12.2828 19.0116 13.0705C19.0116 13.9895 19.7327 14.7116 20.6505 14.7116C21.5683 14.7116 22.2895 13.9895 22.2895 13.0705C22.2895 12.2828 21.7322 11.6264 20.9783 11.4623V3.7493C21.4372 3.65084 21.8306 3.35545 22.06 2.96159L28.9763 7.03143C28.9107 7.26117 28.8452 7.49092 28.8452 7.72067C28.8452 8.50838 29.4024 9.16481 30.1563 9.32891V17.3701C29.4024 17.5342 28.8452 18.1906 28.8452 18.9784C28.8452 19.8973 29.5663 20.6194 30.4841 20.6194C31.4019 20.6194 32.123 19.8973 32.123 18.9784C32.123 18.1906 31.5658 17.5342 30.8119 17.3701V9.32891C31.2052 9.23045 31.5658 9.0007 31.7952 8.70531L38.2199 12.4798C38.0887 12.7095 37.9904 13.0049 37.9904 13.3003C37.9904 14.088 38.5476 14.7444 39.3015 14.9085V22.8513C38.5804 23.0154 38.0232 23.6718 38.0232 24.4595ZM10.4892 31.1222C10.1286 31.1222 9.8008 30.8268 9.8008 30.433C9.8008 30.0391 10.0958 29.7437 10.4892 29.7437C10.8497 29.7437 11.1775 30.0391 11.1775 30.433C11.1775 30.8268 10.8497 31.1222 10.4892 31.1222ZM19.9622 35.389C19.9622 35.0279 20.2572 34.6997 20.6505 34.6997C21.0111 34.6997 21.3389 34.9951 21.3389 35.389C21.3389 35.7828 21.0439 36.0782 20.6505 36.0782C20.29 36.0454 19.9622 35.75 19.9622 35.389ZM30.5169 29.7765C30.8774 29.7765 31.2052 30.0719 31.2052 30.4658C31.2052 30.8596 30.9102 31.155 30.5169 31.155C30.1235 31.155 29.8285 30.8596 29.8285 30.4658C29.8285 30.0719 30.1563 29.7765 30.5169 29.7765ZM20.7489 22.9825C21.6011 22.9825 22.2895 23.6718 22.2895 24.5251C22.2895 25.3785 21.6011 26.0677 20.7489 26.0677C19.8966 26.0677 19.2083 25.3785 19.2083 24.5251C19.2083 23.6718 19.8966 22.9825 20.7489 22.9825ZM10.5219 17.5999C10.8825 17.5999 11.2103 17.8953 11.2103 18.2891C11.2103 18.683 10.9153 18.9784 10.5219 18.9784C10.1614 18.9784 9.83358 18.683 9.83358 18.2891C9.83358 17.8953 10.1614 17.5999 10.5219 17.5999ZM21.3389 13.0377C21.3389 13.3987 21.0439 13.727 20.6505 13.727C20.2572 13.727 19.9949 13.3987 19.9949 13.0377C19.9949 12.6767 20.29 12.3485 20.6833 12.3485C21.0766 12.3485 21.3389 12.6439 21.3389 13.0377ZM31.2052 18.9455C31.2052 19.3066 30.9102 19.6348 30.5169 19.6348C30.1235 19.6348 29.8285 19.3394 29.8285 18.9455C29.8285 18.5517 30.1235 18.2563 30.5169 18.2563C30.9102 18.2563 31.2052 18.5845 31.2052 18.9455Z" fill="#363843"/>
</g>
<defs>
<clipPath id="clip0_9531_5514">
<rect width="110" height="50" fill="currentColor" transform="translate(0 0.5)"/>
</clipPath>
</defs>
</svg>
