<svg width="24" height="24" viewBox="0 0 24 24" fill="none" xmlns="http://www.w3.org/2000/svg">
<path fill-rule="evenodd" clip-rule="evenodd" d="M2 4.61538C2 4.27552 2.2132 4 2.47619 4H21.5238C21.7868 4 22 4.27552 22 4.61538C22 4.95525 21.7868 5.23077 21.5238 5.23077H2.47619C2.2132 5.23077 2 4.95525 2 4.61538ZM4.85714 12C4.85714 11.6601 5.07034 11.3846 5.33333 11.3846H18.6667C18.9297 11.3846 19.1429 11.6601 19.1429 12C19.1429 12.3399 18.9297 12.6154 18.6667 12.6154H5.33333C5.07034 12.6154 4.85714 12.3399 4.85714 12ZM2 19.3846C2 19.0447 2.2132 18.7692 2.47619 18.7692H21.5238C21.7868 18.7692 22 19.0447 22 19.3846C22 19.7245 21.7868 20 21.5238 20H2.47619C2.2132 20 2 19.7245 2 19.3846Z" fill="#363843"/>
</svg>
