<svg width="83" height="83" viewBox="0 0 83 83" fill="none" xmlns="http://www.w3.org/2000/svg">
<path d="M31 69.8672H30.5V70.1539L30.7474 70.2987L31 69.8672ZM51.0685 81.6146L50.8159 82.0461H50.8159L51.0685 81.6146ZM10.5 63.3672C10.2239 63.3672 10 63.591 10 63.8672C10 64.1433 10.2239 64.3672 10.5 64.3672V63.3672ZM24.5 64.3672C24.7761 64.3672 25 64.1433 25 63.8672C25 63.591 24.7761 63.3672 24.5 63.3672V64.3672ZM10.5 71.3672C10.2239 71.3672 10 71.591 10 71.8672C10 72.1433 10.2239 72.3672 10.5 72.3672V71.3672ZM24.5 72.3672C24.7761 72.3672 25 72.1433 25 71.8672C25 71.591 24.7761 71.3672 24.5 71.3672V72.3672ZM42 40.3672C41.7239 40.3672 41.5 40.591 41.5 40.8672C41.5 41.1433 41.7239 41.3672 42 41.3672V40.3672ZM72 41.3672C72.2761 41.3672 72.5 41.1433 72.5 40.8672C72.5 40.591 72.2761 40.3672 72 40.3672V41.3672ZM42 48.8672C41.7239 48.8672 41.5 49.091 41.5 49.3672C41.5 49.6433 41.7239 49.8672 42 49.8672V48.8672ZM72 49.8672C72.2761 49.8672 72.5 49.6433 72.5 49.3672C72.5 49.091 72.2761 48.8672 72 48.8672V49.8672ZM42 56.8672C41.7239 56.8672 41.5 57.091 41.5 57.3672C41.5 57.6433 41.7239 57.8672 42 57.8672V56.8672ZM72 57.8672C72.2761 57.8672 72.5 57.6433 72.5 57.3672C72.5 57.091 72.2761 56.8672 72 56.8672V57.8672ZM52.5 70.3672C52.5 70.091 52.2761 69.8672 52 69.8672C51.7239 69.8672 51.5 70.091 51.5 70.3672H52.5ZM31 14.8672C31.2761 14.8672 31.5 14.6433 31.5 14.3672C31.5 14.091 31.2761 13.8672 31 13.8672V14.8672ZM31.5 69.8672V5.36719H30.5V69.8672H31.5ZM35 1.86719H78V0.867188H35V1.86719ZM81.5 5.36719V65.8672H82.5V5.36719H81.5ZM78 69.3672H31V70.3672H78V69.3672ZM30.7474 70.2987L50.8159 82.0461L51.3211 81.1831L31.2526 69.4357L30.7474 70.2987ZM50.8159 82.0461C51.1751 82.2564 51.5838 82.3672 52 82.3672V81.3672C51.7614 81.3672 51.527 81.3036 51.3211 81.1831L50.8159 82.0461ZM81.5 65.8672C81.5 67.8002 79.933 69.3672 78 69.3672V70.3672C80.4853 70.3672 82.5 68.3525 82.5 65.8672H81.5ZM78 1.86719C79.933 1.86719 81.5 3.43419 81.5 5.36719H82.5C82.5 2.88191 80.4853 0.867188 78 0.867188V1.86719ZM31.5 5.36719C31.5 3.43419 33.067 1.86719 35 1.86719V0.867188C32.5147 0.867188 30.5 2.8819 30.5 5.36719H31.5ZM10 26.3672V34.3672H11V26.3672H10ZM11.5 35.8672H23V34.8672H11.5V35.8672ZM24.5 34.3672V26.3672H23.5V34.3672H24.5ZM23 24.8672H11.5V25.8672H23V24.8672ZM24.5 26.3672C24.5 25.5388 23.8284 24.8672 23 24.8672V25.8672C23.2761 25.8672 23.5 26.091 23.5 26.3672H24.5ZM23 35.8672C23.8284 35.8672 24.5 35.1956 24.5 34.3672H23.5C23.5 34.6433 23.2761 34.8672 23 34.8672V35.8672ZM10 34.3672C10 35.1956 10.6716 35.8672 11.5 35.8672V34.8672C11.2239 34.8672 11 34.6433 11 34.3672H10ZM11 26.3672C11 26.091 11.2239 25.8672 11.5 25.8672V24.8672C10.6716 24.8672 10 25.5388 10 26.3672H11ZM10 45.3672V53.3672H11V45.3672H10ZM11.5 54.8672H23V53.8672H11.5V54.8672ZM24.5 53.3672V45.3672H23.5V53.3672H24.5ZM23 43.8672H11.5V44.8672H23V43.8672ZM24.5 45.3672C24.5 44.5388 23.8284 43.8672 23 43.8672V44.8672C23.2761 44.8672 23.5 45.091 23.5 45.3672H24.5ZM23 54.8672C23.8284 54.8672 24.5 54.1956 24.5 53.3672H23.5C23.5 53.6433 23.2761 53.8672 23 53.8672V54.8672ZM10 53.3672C10 54.1956 10.6716 54.8672 11.5 54.8672V53.8672C11.2239 53.8672 11 53.6433 11 53.3672H10ZM11 45.3672C11 45.091 11.2239 44.8672 11.5 44.8672V43.8672C10.6716 43.8672 10 44.5388 10 45.3672H11ZM10.5 64.3672H24.5V63.3672H10.5V64.3672ZM10.5 72.3672H24.5V71.3672H10.5V72.3672ZM42 41.3672H72V40.3672H42V41.3672ZM42 49.8672H72V48.8672H42V49.8672ZM42 57.8672H72V56.8672H42V57.8672ZM42 14.8672V27.8672H43V14.8672H42ZM44.5 30.3672H69.5V29.3672H44.5V30.3672ZM72 27.8672V14.8672H71V27.8672H72ZM69.5 12.3672H44.5V13.3672H69.5V12.3672ZM72 14.8672C72 13.4865 70.8807 12.3672 69.5 12.3672V13.3672C70.3284 13.3672 71 14.0388 71 14.8672H72ZM69.5 30.3672C70.8807 30.3672 72 29.2479 72 27.8672H71C71 28.6956 70.3284 29.3672 69.5 29.3672V30.3672ZM42 27.8672C42 29.2479 43.1193 30.3672 44.5 30.3672V29.3672C43.6716 29.3672 43 28.6956 43 27.8672H42ZM43 14.8672C43 14.0388 43.6716 13.3672 44.5 13.3672V12.3672C43.1193 12.3672 42 13.4865 42 14.8672H43ZM51.5 70.3672V81.3672H52.5V70.3672H51.5ZM51 81.8672H5V82.8672H51V81.8672ZM1.5 78.3672V18.3672H0.5V78.3672H1.5ZM5 14.8672H31V13.8672H5V14.8672ZM1.5 18.3672C1.5 16.4342 3.067 14.8672 5 14.8672V13.8672C2.51472 13.8672 0.5 15.8819 0.5 18.3672H1.5ZM5 81.8672C3.067 81.8672 1.5 80.3002 1.5 78.3672H0.5C0.5 80.8525 2.51472 82.8672 5 82.8672V81.8672ZM51.5 81.3672C51.5 81.6433 51.2761 81.8672 51 81.8672V82.8672C51.8284 82.8672 52.5 82.1956 52.5 81.3672H51.5Z" fill="#363843"/>
</svg>
