<svg width="34" height="35" viewBox="0 0 34 35" fill="none" xmlns="http://www.w3.org/2000/svg">
<path d="M19.8933 27.3496V7.5C19.8933 7.5 12.2286 15.3196 6.09688 15.3196V19.6805M6.09688 19.6805C12.2286 19.6805 19.8933 27.5 19.8933 27.5V7.80076M6.09688 19.6805L6.09773 23.5713L3.0024 23.5714V19.6805M6.13533 15.3196H2.76288C1.84312 15.3196 1 16.0714 1 17.0489V17.9511C1 18.8534 1.76647 19.6805 2.76288 19.6805H6.13533M22.806 7.5C28.4395 7.5 33 11.9737 33 17.5C33 23.0263 28.4395 27.5 22.806 27.5M23.1899 12.4999C26.0067 12.4999 28.287 14.7367 28.287 17.4999C28.287 20.263 26.0067 22.4999 23.1899 22.4999" stroke="#363843" stroke-linecap="round" stroke-linejoin="round"/>
</svg>
