<svg width="24" height="24" viewBox="0 0 24 24" fill="#363843" xmlns="http://www.w3.org/2000/svg">
<path fill-rule="evenodd" clip-rule="evenodd" d="M7.85714 4.40816H6.85714C6.21978 4.40816 5.60424 4.66117 5.14713 5.11828C4.68934 5.57607 4.42857 6.20119 4.42857 6.85714L4.42857 7.83673H1.28571C1.21667 7.83673 1.14618 7.86397 1.09094 7.91922C1.03501 7.97515 1 8.05523 1 8.14286C1 8.23049 1.03501 8.31057 1.09094 8.3665C1.14618 8.42174 1.21667 8.44898 1.28571 8.44898H4.42857V11.6939H1.28571C1.21667 11.6939 1.14618 11.7211 1.09094 11.7764C1.03501 11.8323 1 11.9124 1 12C1 12.0876 1.035 12.1677 1.09094 12.2236C1.14618 12.2789 1.21667 12.3061 1.28571 12.3061H4.42857V15.551H1.28571C1.21667 15.551 1.14618 15.5783 1.09094 15.6335C1.035 15.6894 1 15.7695 1 15.8571C1 15.9448 1.03501 16.0249 1.09094 16.0808C1.14618 16.136 1.21667 16.1633 1.28571 16.1633H4.42857L4.42857 17.1429C4.42857 17.7988 4.68934 18.4239 5.14713 18.8817C5.60424 19.3388 6.21978 19.5918 6.85714 19.5918H7.85714V22.7143C7.85714 22.8019 7.89215 22.882 7.94808 22.9379C8.00332 22.9932 8.07381 23.0204 8.14286 23.0204C8.2119 23.0204 8.28239 22.9932 8.33764 22.9379C8.39357 22.882 8.42857 22.8019 8.42857 22.7143V19.5918H11.7143V22.7143C11.7143 22.8019 11.7493 22.882 11.8052 22.9379C11.8605 22.9932 11.931 23.0204 12 23.0204C12.069 23.0204 12.1395 22.9932 12.1948 22.9379C12.2507 22.882 12.2857 22.8019 12.2857 22.7143V19.5918H15.5714V22.7143C15.5714 22.8019 15.6064 22.882 15.6624 22.9379C15.7176 22.9932 15.7881 23.0204 15.8571 23.0204C15.9262 23.0204 15.9967 22.9932 16.0519 22.9379C16.1079 22.882 16.1429 22.8019 16.1429 22.7143V19.5918H17.1429C17.7802 19.5918 18.3958 19.3388 18.8529 18.8817C19.3107 18.4239 19.5714 17.7988 19.5714 17.1429V16.1633H22.7143C22.7833 16.1633 22.8538 16.136 22.9091 16.0808C22.965 16.0249 23 15.9448 23 15.8571C23 15.7695 22.965 15.6894 22.9091 15.6335C22.8538 15.5783 22.7833 15.551 22.7143 15.551H19.5714V12.3061H22.7143C22.7833 12.3061 22.8538 12.2789 22.9091 12.2236C22.965 12.1677 23 12.0876 23 12C23 11.9124 22.965 11.8323 22.9091 11.7764C22.8538 11.7211 22.7833 11.6939 22.7143 11.6939H19.5714V8.44898H22.7143C22.7833 8.44898 22.8538 8.42174 22.9091 8.3665C22.965 8.31056 23 8.23049 23 8.14286C23 8.05523 22.965 7.97515 22.9091 7.91922C22.8538 7.86397 22.7833 7.83673 22.7143 7.83673H19.5714V6.85714C19.5714 6.20119 19.3107 5.57607 18.8529 5.11828C18.3958 4.66117 17.7802 4.40816 17.1429 4.40816H16.1429V1.28571C16.1429 1.19808 16.1079 1.118 16.0519 1.06208C15.9967 1.00683 15.9262 0.979592 15.8571 0.979592C15.7881 0.979592 15.7176 1.00683 15.6624 1.06208C15.6064 1.11801 15.5714 1.19809 15.5714 1.28571V4.40816H12.2857V1.28571C12.2857 1.19808 12.2507 1.11801 12.1948 1.06208C12.1395 1.00683 12.069 0.979592 12 0.979592C11.931 0.979592 11.8605 1.00683 11.8052 1.06208C11.7493 1.11801 11.7143 1.19808 11.7143 1.28571V4.40816H8.42857V1.28571C8.42857 1.19808 8.39357 1.11801 8.33764 1.06208C8.28239 1.00683 8.2119 0.979592 8.14286 0.979592C8.07381 0.979592 8.00332 1.00683 7.94808 1.06208C7.89215 1.11801 7.85714 1.19808 7.85714 1.28571V4.40816ZM8.57143 15.4286V8.57143H15.4286V15.4286H8.57143ZM14.4286 14.449V9.55102H9.57143V14.449H14.4286ZM3.42857 6.85714H1.28571C0.944722 6.85714 0.617695 6.9926 0.376577 7.23372C0.135459 7.47484 0 7.80186 0 8.14286C0 8.48385 0.135459 8.81088 0.376577 9.05199C0.617695 9.29311 0.944722 9.42857 1.28571 9.42857H3.42857V10.7143H1.28571C0.944722 10.7143 0.617695 10.8497 0.376577 11.0909C0.135459 11.332 0 11.659 0 12C0 12.341 0.135459 12.668 0.376577 12.9091C0.617695 13.1503 0.944722 13.2857 1.28571 13.2857H3.42857V14.5714H1.28571C0.944722 14.5714 0.617695 14.7069 0.376577 14.948C0.135459 15.1891 0 15.5162 0 15.8571C0 16.1981 0.135459 16.5252 0.376577 16.7663C0.617695 17.0074 0.944722 17.1429 1.28571 17.1429H3.42857C3.42857 18.0522 3.78979 18.9242 4.43278 19.5672C5.07576 20.2102 5.94783 20.5714 6.85714 20.5714V22.7143C6.85714 23.0553 6.9926 23.3823 7.23372 23.6234C7.47484 23.8645 7.80187 24 8.14286 24C8.48385 24 8.81088 23.8645 9.05199 23.6234C9.29311 23.3823 9.42857 23.0553 9.42857 22.7143V20.5714H10.7143V22.7143C10.7143 23.0553 10.8497 23.3823 11.0909 23.6234C11.332 23.8645 11.659 24 12 24C12.341 24 12.668 23.8645 12.9091 23.6234C13.1503 23.3823 13.2857 23.0553 13.2857 22.7143V20.5714H14.5714V22.7143C14.5714 23.0553 14.7069 23.3823 14.948 23.6234C15.1891 23.8645 15.5162 24 15.8571 24C16.1981 24 16.5252 23.8645 16.7663 23.6234C17.0074 23.3823 17.1429 23.0553 17.1429 22.7143V20.5714C18.0522 20.5714 18.9242 20.2102 19.5672 19.5672C20.2102 18.9242 20.5714 18.0522 20.5714 17.1429H22.7143C23.0553 17.1429 23.3823 17.0074 23.6234 16.7663C23.8645 16.5252 24 16.1981 24 15.8571C24 15.5162 23.8645 15.1891 23.6234 14.948C23.3823 14.7069 23.0553 14.5714 22.7143 14.5714H20.5714V13.2857H22.7143C23.0553 13.2857 23.3823 13.1503 23.6234 12.9091C23.8645 12.668 24 12.341 24 12C24 11.659 23.8645 11.332 23.6234 11.0909C23.3823 10.8497 23.0553 10.7143 22.7143 10.7143H20.5714V9.42857H22.7143C23.0553 9.42857 23.3823 9.29311 23.6234 9.05199C23.8645 8.81088 24 8.48385 24 8.14286C24 7.80186 23.8645 7.47484 23.6234 7.23372C23.3823 6.9926 23.0553 6.85714 22.7143 6.85714H20.5714C20.5714 5.94783 20.2102 5.07576 19.5672 4.43278C18.9242 3.78979 18.0522 3.42857 17.1429 3.42857V1.28571C17.1429 0.944722 17.0074 0.617695 16.7663 0.376577C16.5252 0.135459 16.1981 0 15.8571 0C15.5162 0 15.1891 0.135459 14.948 0.376577C14.7069 0.617695 14.5714 0.944722 14.5714 1.28571V3.42857H13.2857V1.28571C13.2857 0.944722 13.1503 0.617695 12.9091 0.376577C12.668 0.135459 12.341 0 12 0C11.659 0 11.332 0.135459 11.0909 0.376577C10.8497 0.617695 10.7143 0.944722 10.7143 1.28571V3.42857H9.42857V1.28571C9.42857 0.944722 9.29311 0.617695 9.05199 0.376577C8.81088 0.135459 8.48385 0 8.14286 0C7.80187 0 7.47484 0.135459 7.23372 0.376577C6.9926 0.617695 6.85714 0.944722 6.85714 1.28571V3.42857C5.94783 3.42857 5.07576 3.78979 4.43278 4.43278C3.78979 5.07576 3.42857 5.94783 3.42857 6.85714Z" fill="#363843"/>
</svg>
