<svg width="36" height="25" viewBox="0 0 36 25" fill="none" xmlns="http://www.w3.org/2000/svg">
<path d="M34.6606 5.65804C34.6604 5.65685 34.6606 5.65835 34.6605 5.65717C34.655 5.61919 34.3201 3.29783 33.309 2.27088C32.016 0.911811 30.5667 0.904879 29.9021 0.825435C25.1442 0.480468 18.0074 0.480469 18.0074 0.480469C18.0074 0.480469 18.0074 0.480469 18.0074 0.480469H17.9926C17.9926 0.480469 17.9926 0.480469 17.9926 0.480469C17.9926 0.480469 10.8557 0.480468 6.09787 0.825435C5.43328 0.904879 3.98456 0.911811 2.69097 2.27088C1.67967 3.29803 1.34535 5.62006 1.34006 5.65719C1.3399 5.65835 1.3401 5.65686 1.33995 5.65802C1.33539 5.6952 1 8.43775 1 11.1803V13.7689C1 16.5115 1.33539 19.254 1.33995 19.2912C1.3401 19.2923 1.3399 19.2909 1.34006 19.292C1.34535 19.3291 1.67967 21.6512 2.69097 22.6783C3.98456 24.0374 5.68297 23.9947 6.44 24.1371C9.15644 24.3991 17.9769 24.4803 18 24.4805C18.0007 24.4805 17.9993 24.4805 18.0001 24.4805C18.0231 24.4804 25.1519 24.4692 29.9021 24.1243C30.5667 24.0449 32.016 24.0379 33.309 22.6789C34.3201 21.6519 34.655 19.3306 34.6605 19.2926C34.6606 19.2914 34.6604 19.2929 34.6606 19.2917C34.6652 19.2537 35 16.5115 35 13.7694V11.1808C35 8.43819 34.6652 5.69607 34.6606 5.65804ZM14.7823 16.7541C14.6491 16.8234 14.49 16.7268 14.49 16.5767L14.4885 7.64904C14.4885 7.4987 14.6481 7.40209 14.7813 7.47182L23.3358 11.9511C23.479 12.026 23.4787 12.2311 23.3353 12.3057L14.7823 16.7541Z" stroke="#0C92BF" stroke-width="0.8"/>
</svg>
